<?xml version="1.0" encoding="utf-8"?>
<!-- Generator: Adobe Illustrator 16.0.0, SVG Export Plug-In . SVG Version: 6.00 Build 0)  -->
<!DOCTYPE svg PUBLIC "-//W3C//DTD SVG 1.1//EN" "http://www.w3.org/Graphics/SVG/1.1/DTD/svg11.dtd">
<svg version="1.1" id="Layer_1" xmlns="http://www.w3.org/2000/svg" xmlns:xlink="http://www.w3.org/1999/xlink" x="0px" y="0px"
	 width="96px" height="24px" viewBox="0 0 96 24" enable-background="new 0 0 96 24" xml:space="preserve">
<g>
	<circle fill="#FFFFFF" cx="12" cy="12" r="11"/>
	<path fill="#D4D4D4" d="M12,24C5.383,24,0,18.617,0,12S5.383,0,12,0s12,5.383,12,12S18.617,24,12,24z M12,1C5.935,1,1,5.935,1,12
		c0,6.064,4.935,11,11,11s11-4.936,11-11C23,5.935,18.065,1,12,1z"/>
</g>
<g>
	
		<linearGradient id="SVGID_1_" gradientUnits="userSpaceOnUse" x1="19.3203" y1="816.9199" x2="19.3203" y2="840.9199" gradientTransform="matrix(1 0 0 1 16.6797 -816.9199)">
		<stop  offset="0" style="stop-color:#08B395"/>
		<stop  offset="1" style="stop-color:#0C977F"/>
	</linearGradient>
	<circle fill="url(#SVGID_1_)" cx="36" cy="12" r="12"/>
	<circle fill="#FFFFFF" cx="36" cy="12" r="5"/>
</g>
<circle fill="#F4F4F4" cx="60" cy="12" r="12"/>
<g>
	<circle fill="#F4F4F4" cx="84" cy="12" r="12"/>
	<circle fill="#D4D4D4" cx="84" cy="12" r="5"/>
</g>
</svg>
