<svg width="32" height="32" viewBox="0 0 32 32" fill="none" xmlns="http://www.w3.org/2000/svg">
<path d="M16 32C24.8366 32 32 24.8366 32 16C32 7.16344 24.8366 0 16 0C7.16344 0 0 7.16344 0 16C0 24.8366 7.16344 32 16 32Z" fill="url(#paint0_radial)"/>
<path style="mix-blend-mode:multiply" opacity="0.2" d="M16 32C24.8366 32 32 24.8366 32 16C32 7.16344 24.8366 0 16 0C7.16344 0 0 7.16344 0 16C0 24.8366 7.16344 32 16 32Z" fill="url(#paint1_radial)"/>
<path d="M7.88158 10.4629C7.71073 10.4573 7.54811 10.3882 7.42545 10.2691C7.30279 10.15 7.22889 9.98956 7.21815 9.81895C7.20742 9.64834 7.26063 9.47985 7.3674 9.34635C7.47417 9.21285 7.62684 9.12391 7.79564 9.09688C9.0749 8.93574 10.3799 8.81112 11.6923 8.72346C10.9206 7.97404 10.0211 7.36864 9.03623 6.93585C8.88003 6.85654 8.75999 6.72059 8.70063 6.55578C8.64127 6.39096 8.64706 6.20969 8.71682 6.049C8.78658 5.88831 8.91505 5.76031 9.076 5.69113C9.23694 5.62195 9.41822 5.61682 9.58282 5.67678C12.2496 6.82842 13.6496 8.85667 13.7081 8.94261C13.776 9.04378 13.8158 9.16117 13.8234 9.28278C13.8311 9.40439 13.8063 9.52584 13.7515 9.6347C13.6968 9.74356 13.6141 9.83592 13.5119 9.90233C13.4098 9.96873 13.2918 10.0068 13.1701 10.0126C11.4203 10.0925 9.67006 10.2416 7.96796 10.4556C7.93936 10.46 7.9105 10.4624 7.88158 10.4629V10.4629Z" fill="url(#paint2_linear)"/>
<path d="M24.1184 10.4625C24.0897 10.4625 24.061 10.4607 24.0325 10.4569C22.3304 10.2421 20.5802 10.0938 18.8304 10.0139C18.7088 10.0077 18.5911 9.96938 18.4893 9.90284C18.3874 9.83629 18.305 9.7439 18.2505 9.6351C18.196 9.5263 18.1714 9.40499 18.1791 9.28355C18.1869 9.16211 18.2267 9.04491 18.2945 8.94389C18.3525 8.85795 19.7525 6.82798 22.4198 5.67806C22.5036 5.63434 22.5955 5.60837 22.6898 5.60177C22.7841 5.59518 22.8788 5.6081 22.9678 5.63973C23.0569 5.67136 23.1385 5.72102 23.2075 5.78561C23.2766 5.8502 23.3315 5.92833 23.369 6.01512C23.4065 6.1019 23.4256 6.19548 23.4253 6.29001C23.425 6.38454 23.4052 6.47799 23.3671 6.56452C23.329 6.65104 23.2735 6.72879 23.2041 6.7929C23.1346 6.85701 23.0527 6.90611 22.9634 6.93712C21.9769 7.36857 21.0759 7.97345 20.303 8.72302C21.6162 8.80896 22.9243 8.9353 24.2031 9.09644C24.3719 9.12347 24.5246 9.21241 24.6313 9.34591C24.7381 9.47941 24.7913 9.6479 24.7806 9.81851C24.7698 9.98912 24.6959 10.1496 24.5733 10.2687C24.4506 10.3877 24.288 10.4568 24.1171 10.4625H24.1184Z" fill="url(#paint3_linear)"/>
<path fill-rule="evenodd" clip-rule="evenodd" d="M4.22764 14.9424C4.1967 15.2909 4.17822 15.6433 4.17822 16C4.17822 22.529 9.47102 27.8218 16.0001 27.8218C22.5292 27.8218 27.822 22.529 27.822 16C27.822 15.6433 27.8035 15.2909 27.7726 14.9424C24.126 14.2261 20.1576 13.8286 15.9984 13.8286C11.8392 13.8286 7.8742 14.2261 4.22764 14.9424Z" fill="url(#paint4_linear)"/>
<path d="M15.9999 27.8217C20.1118 27.8217 23.4452 26.6395 23.4452 25.1811C23.4452 23.7228 20.1118 22.5405 15.9999 22.5405C11.888 22.5405 8.55469 23.7228 8.55469 25.1811C8.55469 26.6395 11.888 27.8217 15.9999 27.8217Z" fill="url(#paint5_linear)"/>
<defs>
<radialGradient id="paint0_radial" cx="0" cy="0" r="1" gradientUnits="userSpaceOnUse" gradientTransform="translate(16.2991 0.468389) scale(24.1298)">
<stop stop-color="#FEEB71"/>
<stop offset="0.22" stop-color="#FEE76E"/>
<stop offset="0.45" stop-color="#FDDA64"/>
<stop offset="0.68" stop-color="#FBC654"/>
<stop offset="0.91" stop-color="#F8A93D"/>
<stop offset="1" stop-color="#F79C33"/>
</radialGradient>
<radialGradient id="paint1_radial" cx="0" cy="0" r="1" gradientUnits="userSpaceOnUse" gradientTransform="translate(16.0236 16.0241) scale(16.0241)">
<stop stop-color="white"/>
<stop offset="0.37" stop-color="#FFFEFD"/>
<stop offset="0.51" stop-color="#FEF9F6"/>
<stop offset="0.6" stop-color="#FCF0EB"/>
<stop offset="0.68" stop-color="#FAE4DA"/>
<stop offset="0.75" stop-color="#F7D4C4"/>
<stop offset="0.8" stop-color="#F3C1A8"/>
<stop offset="0.86" stop-color="#EEAA88"/>
<stop offset="0.91" stop-color="#E98E62"/>
<stop offset="0.95" stop-color="#E36F37"/>
<stop offset="0.99" stop-color="#DC4F09"/>
<stop offset="1" stop-color="#DB4800"/>
</radialGradient>
<linearGradient id="paint2_linear" x1="7.19662" y1="8.0415" x2="13.8245" y2="8.0415" gradientUnits="userSpaceOnUse">
<stop stop-color="#3B446B"/>
<stop offset="0.3" stop-color="#384167"/>
<stop offset="0.61" stop-color="#31375A"/>
<stop offset="0.93" stop-color="#242746"/>
<stop offset="1" stop-color="#202340"/>
</linearGradient>
<linearGradient id="paint3_linear" x1="18.1755" y1="8.04106" x2="24.8034" y2="8.04106" gradientUnits="userSpaceOnUse">
<stop stop-color="#202340"/>
<stop offset="0.07" stop-color="#242746"/>
<stop offset="0.39" stop-color="#31375A"/>
<stop offset="0.7" stop-color="#384167"/>
<stop offset="1" stop-color="#3B446B"/>
</linearGradient>
<linearGradient id="paint4_linear" x1="16.0001" y1="27.8218" x2="16.0001" y2="13.8286" gradientUnits="userSpaceOnUse">
<stop stop-color="#85370E"/>
<stop offset="1" stop-color="#482314"/>
</linearGradient>
<linearGradient id="paint5_linear" x1="15.9999" y1="27.8217" x2="15.9999" y2="22.5405" gradientUnits="userSpaceOnUse">
<stop stop-color="#DB122B"/>
<stop offset="1" stop-color="#FF6683"/>
</linearGradient>
</defs>
</svg>
