<?xml version="1.0" encoding="utf-8"?>
<!-- Generator: Adobe Illustrator 16.0.0, SVG Export Plug-In . SVG Version: 6.00 Build 0)  -->
<!DOCTYPE svg PUBLIC "-//W3C//DTD SVG 1.1//EN" "http://www.w3.org/Graphics/SVG/1.1/DTD/svg11.dtd">
<svg version="1.1" id="Layer_1" xmlns="http://www.w3.org/2000/svg" xmlns:xlink="http://www.w3.org/1999/xlink" x="0px" y="0px"
	 width="24px" height="24px" viewBox="0.5 0 24 24" enable-background="new 0.5 0 24 24" xml:space="preserve">
<ellipse fill="#F4F4F4" cx="12.5" cy="12" rx="12" ry="12"/>
<path fill="#333333" d="M13.561,11.985l3.712-3.712c0.293-0.293,0.293-0.768,0-1.061s-0.768-0.293-1.061,0L12.5,10.925L8.788,7.212
	c-0.293-0.293-0.768-0.293-1.061,0s-0.293,0.768,0,1.061l3.713,3.712l-3.713,3.713c-0.293,0.293-0.293,0.768,0,1.061
	c0.146,0.146,0.339,0.22,0.53,0.22c0.192,0,0.384-0.073,0.53-0.22l3.713-3.713l3.711,3.713c0.146,0.146,0.338,0.22,0.53,0.22
	s0.384-0.073,0.53-0.22c0.293-0.293,0.293-0.768,0-1.061L13.561,11.985z"/>
</svg>
