<svg width="58" height="58" viewBox="0 0 58 58" fill="none" xmlns="http://www.w3.org/2000/svg">
<circle cx="29" cy="29" r="29" fill="#F5E04B"/>
<g clip-path="url(#clip0)">
<path d="M35.6336 17H24.3724C24.193 16.9992 24.0151 17.0359 23.8491 17.1082C23.683 17.1805 23.5319 17.2869 23.4045 17.4212C23.277 17.5556 23.1757 17.7154 23.1063 17.8914C23.0369 18.0675 23.0008 18.2563 23 18.4472V30.3306C23 30.5217 23.0356 30.711 23.1047 30.8874C23.1738 31.0638 23.2751 31.2239 23.4027 31.3585C23.5303 31.493 23.6817 31.5993 23.8481 31.6713C24.0146 31.7433 24.1928 31.7795 24.3724 31.7778H29.5925C29.4827 33.3349 28.9909 34.8341 28.1661 36.1257C27.3523 37.335 26.3955 38.4278 25.3193 39.3771C25.2393 39.4484 25.1744 39.537 25.1289 39.637C25.0834 39.737 25.0585 39.8462 25.0557 39.9572C25.0654 40.1393 25.133 40.3124 25.2474 40.4481L28.8433 44.7705C28.9322 44.8737 29.0432 44.9524 29.167 45C29.2447 45.0297 29.3279 45.0399 29.41 45.03C29.4921 45.02 29.5709 44.9901 29.6404 44.9426C31.8648 43.1923 33.6841 40.9248 34.9595 38.313C36.2349 35.7011 36.9328 32.8139 37 29.8716V18.4472C36.9984 18.0628 36.8538 17.6947 36.5977 17.4235C36.3416 17.1523 35.9949 17 35.6336 17Z" fill="white"/>
</g>
<defs>
<clipPath id="clip0">
<rect width="14" height="28" fill="white" transform="translate(23 17)"/>
</clipPath>
</defs>
</svg>
