<svg width="58" height="58" viewBox="0 0 58 58" fill="none" xmlns="http://www.w3.org/2000/svg">
<circle cx="29" cy="29" r="29" fill="#50A0EC"/>
<g clip-path="url(#clip0)">
<path d="M42 21.5585C41.1075 21.95 40.1565 22.2095 39.165 22.3355C40.185 21.7265 40.9635 20.7695 41.3295 19.616C40.3785 20.183 39.3285 20.5835 38.2095 20.807C37.3065 19.8455 36.0195 19.25 34.6155 19.25C31.8915 19.25 29.6985 21.461 29.6985 24.1715C29.6985 24.5615 29.7315 24.9365 29.8125 25.2935C25.722 25.094 22.1025 23.1335 19.671 20.147C19.2465 20.8835 18.9975 21.7265 18.9975 22.634C18.9975 24.338 19.875 25.8485 21.183 26.723C20.3925 26.708 19.617 26.4785 18.96 26.117C18.96 26.132 18.96 26.1515 18.96 26.171C18.96 28.562 20.6655 30.548 22.902 31.0055C22.5015 31.115 22.065 31.1675 21.612 31.1675C21.297 31.1675 20.979 31.1495 20.6805 31.0835C21.318 33.032 23.127 34.4645 25.278 34.511C23.604 35.8205 21.4785 36.6095 19.1775 36.6095C18.774 36.6095 18.387 36.5915 18 36.542C20.1795 37.9475 22.7625 38.75 25.548 38.75C34.602 38.75 39.552 31.25 39.552 24.749C39.552 24.5315 39.5445 24.3215 39.534 24.113C40.5105 23.42 41.331 22.5545 42 21.5585Z" fill="white"/>
</g>
<defs>
<clipPath id="clip0">
<rect width="24" height="24" fill="white" transform="translate(18 17)"/>
</clipPath>
</defs>
</svg>
