<svg xmlns="http://www.w3.org/2000/svg" width="13" height="12" viewBox="0 0 13 12">
    <g fill="none" fill-rule="evenodd">
        <g fill="#A6AEC5">
            <g>
                <g>
                    <g transform="translate(-382 -2580) translate(120 2155) translate(0 60) translate(262 365)">
                        <path d="M1.083 10h10.834c0 1.105-.896 2-2 2H3.083c-1.104 0-2-.895-2-2zM1.49 5.821l3.927-.472V3h2.166v2.35l3.928.471C12.36 5.923 13 6.644 13 7.5c0 .828-.672 1.5-1.5 1.5h-10C.672 9 0 8.328 0 7.5c0-.856.64-1.577 1.49-1.679z"/>
                        <ellipse cx="6.5" cy="2" rx="2.167" ry="2"/>
                    </g>
                </g>
            </g>
        </g>
    </g>
</svg>
