<svg xmlns="http://www.w3.org/2000/svg" width="20" height="20" viewBox="0 0 20 20">
    <defs>
        <filter id="s8be1zh01a" color-interpolation-filters="auto">
            <feColorMatrix in="SourceGraphic" values="0 0 0 0 0.039216 0 0 0 0 0.105882 0 0 0 0 0.239216 0 0 0 1.000000 0"/>
        </filter>
    </defs>
    <g fill="none" fill-rule="evenodd">
        <g>
            <g transform="translate(-324.000000, -16.000000) translate(128.000000, 0.000000)">
                <g fill="#0A1B3D" fill-rule="nonzero">
                    <path d="M16.429 0c-.395 0-.715.32-.715.714v2.61C12.037-.236 6.17-.142 2.61 3.536.931 5.269-.005 7.588 0 10c0 .394.32.714.714.714.395 0 .715-.32.715-.714 0-4.34 3.519-7.856 7.858-7.856 2.204 0 4.306.927 5.794 2.552l-3.164 1.055c-.375.125-.577.53-.453.905.125.374.53.577.905.452l4.285-1.428c.293-.097.49-.372.489-.68V.714c0-.394-.32-.714-.714-.714zM17.857 9.286c-.394 0-.714.32-.714.714-.001 4.34-3.52 7.856-7.859 7.856-2.204 0-4.306-.927-5.794-2.552l3.164-1.055c.375-.125.578-.53.453-.905-.125-.374-.53-.577-.904-.453L1.917 14.32c-.292.097-.49.372-.489.68v4.286c0 .394.32.714.715.714.394 0 .714-.32.714-.714v-2.61c3.677 3.56 9.545 3.466 13.105-.212 1.678-1.733 2.614-4.052 2.61-6.464 0-.395-.32-.714-.715-.714z" transform="translate(196.000000, 16.000000)"/>
                </g>
            </g>
        </g>
    </g>
</svg>
