<svg xmlns="http://www.w3.org/2000/svg" width="12" height="12" viewBox="0 0 12 12">
    <defs>
        <filter id="co950zfv1a" color-interpolation-filters="auto">
            <feColorMatrix in="SourceGraphic" values="0 0 0 0 0.901961 0 0 0 0 0.325490 0 0 0 0 0.117647 0 0 0 1.000000 0"/>
        </filter>
        <filter id="gnclc4mkxb" color-interpolation-filters="auto">
            <feColorMatrix in="SourceGraphic" values="0 0 0 0 0.895142 0 0 0 0 0.895142 0 0 0 0 0.895142 0 0 0 1.000000 0"/>
        </filter>
    </defs>
    <g fill="none" fill-rule="evenodd">
        <g>
            <g>
                <g>
                    <g transform="translate(-433 -2479) translate(325 2171) translate(32) translate(0 308)">
                        <g transform="translate(76)">
                            <path fill="#E6531E" d="M8.75 1c1.733 0 3.15 1.356 3.245 3.066l.003.133L12 4.2v.05c0 .39-.069.763-.194 1.109C11.216 7.139 9.28 9.019 6 11 2.72 9.02.785 7.139.194 5.358c-.1-.276-.164-.57-.186-.876L0 4.2C.028 2.428 1.472 1 3.25 1 4.408 1 5.425 1.606 6 2.519 6.576 1.606 7.593 1 8.75 1z"/>
                        </g>
                    </g>
                </g>
            </g>
        </g>
    </g>
</svg>
