<?xml version="1.0" encoding="UTF-8"?>
<svg width="24px" height="24px" viewBox="0 0 24 24" version="1.1" xmlns="http://www.w3.org/2000/svg" xmlns:xlink="http://www.w3.org/1999/xlink">
    <title>ECE900E4-CC07-4C57-B19B-F975EEBCE884</title>
    <g id="스타일가이드" stroke="none" stroke-width="1" fill="none" fill-rule="evenodd">
        <g id="[통합에지인]스타일가이드" transform="translate(-841.000000, -2659.000000)">
            <g id="아이콘/chat" transform="translate(841.000000, 2659.000000)">
                <rect id="Rectangle" x="0" y="0" width="24" height="24"></rect>
                <path d="M20.75,3.25 L20.75,17 L9.5,17 C9.49,17 9.48125,17.005 9.4725,17.005 C9.42875,17.0075 9.38875,17.02 9.34625,17.03 C9.31,17.04 9.27,17.04625 9.23625,17.0625 C9.20375,17.07875 9.17625,17.1025 9.14625,17.12375 C9.11,17.15 9.0725,17.17375 9.0425,17.2075 C9.03625,17.21375 9.02625,17.21625 9.02,17.225 L7.00125,19.64875 L7.00125,17.625 C7.00125,17.28 6.72125,17 6.37625,17 L3.25125,17 L3.25125,3.25 L20.75,3.25 Z M13.25,11.99975 L6.375,11.99975 C6.02982203,11.99975 5.75,12.279572 5.75,12.62475 C5.75,12.969928 6.02982203,13.24975 6.375,13.24975 L6.375,13.24975 L13.25,13.24975 C13.595178,13.24975 13.875,12.969928 13.875,12.62475 C13.875,12.279572 13.595178,11.99975 13.25,11.99975 L13.25,11.99975 Z M17.625,9.49975 L6.375,9.49975 C6.02982203,9.49975 5.75,9.77957203 5.75,10.12475 C5.75,10.469928 6.02982203,10.74975 6.375,10.74975 L6.375,10.74975 L17.625,10.74975 C17.970178,10.74975 18.25,10.469928 18.25,10.12475 C18.25,9.77957203 17.970178,9.49975 17.625,9.49975 L17.625,9.49975 Z M17.625,7 L6.375,7 C6.02982203,7 5.75,7.27982203 5.75,7.625 C5.75,7.97017797 6.02982203,8.25 6.375,8.25 L6.375,8.25 L17.625,8.25 C17.970178,8.25 18.25,7.97017797 18.25,7.625 C18.25,7.27982203 17.970178,7 17.625,7 L17.625,7 Z M3.25125,2 C2.56125,2 2,2.56 2,3.25 L2,17 C2,17.68875 2.56125,18.25 3.25125,18.25 L5.75,18.25 L5.75,21.375 C5.75,21.6375 5.91625,21.8725 6.1625,21.9625 C6.2325,21.9875 6.30375,22 6.37625,22 C6.55875,22 6.73375,21.92 6.85625,21.775 L9.79375,18.25 L20.75,18.25 C21.44,18.25 22,17.68875 22,17 L22,3.25 C22,2.56 21.44,2 20.75,2 L3.25125,2 Z" id="icon_btn_a" fill="#0A1B3D"></path>
            </g>
        </g>
    </g>
</svg>