<svg xmlns="http://www.w3.org/2000/svg" width="20" height="20" viewBox="0 0 20 20">
    <g fill="none" fill-rule="evenodd">
        <g fill="#4B9F47">
            <g>
                <g>
                    <path d="M10 0c5.523 0 10 4.477 10 10s-4.477 10-10 10S0 15.523 0 10 4.477 0 10 0zm2.872 6.22c.084.15.128.318.128.49v5.58c0 .552-.448 1-1 1-.172 0-.34-.044-.49-.128L9 11.75V14c0 .552-.448 1-1 1s-1-.448-1-1v-3H6c-.552 0-1-.448-1-1V9c0-.552.448-1 1-1h1.665l3.845-2.162c.481-.27 1.09-.1 1.362.382zM14 8c.552 0 1 .448 1 1v1c0 .513-.386.936-.883.993L14 11V8z" transform="translate(-749 -110) translate(729 90) translate(20 20)"/>
                </g>
            </g>
        </g>
    </g>
</svg>
