<svg xmlns="http://www.w3.org/2000/svg" width="20" height="20" viewBox="0 0 20 20">
    <g fill="none" fill-rule="evenodd" stroke-linecap="round" stroke-linejoin="round">
        <g stroke="#A6AEC5">
            <g transform="translate(-762 -2540) translate(762 2540)">
                <circle cx="10.009" cy="11.125" r="7.875"/>
                <path d="M2.497 1.97c.73-.55 1.759-.45 2.371.227l.281.31-2.724 2.37-.36-.573c-.484-.772-.297-1.787.432-2.335z"/>
                <path d="M15.997 1.97c.73-.55 1.759-.45 2.371.227l.281.31-2.724 2.37-.36-.573c-.484-.772-.297-1.787.432-2.335z" transform="matrix(-1 0 0 1 33.357 0)"/>
                <path d="M4.946 17.125L3.821 18.625"/>
                <path d="M16.196 17.125L15.071 18.625" transform="matrix(-1 0 0 1 31.268 0)"/>
                <path d="M8.144 7.249L12.841 7.249 11.098 9.828 13.572 9.828 10.05 16.249 9.547 11.749 7.645 11.749z"/>
            </g>
        </g>
    </g>
</svg>
