<svg xmlns="http://www.w3.org/2000/svg" width="20" height="20" viewBox="0 0 20 20">
    <g fill="none" fill-rule="evenodd">
        <g>
            <g>
                <path stroke="#2673f0" stroke-linecap="round" stroke-linejoin="round" d="M16 12.273V15c0 1.105-.895 2-2 2H5c-1.105 0-2-.895-2-2V6c0-1.105.895-2 2-2h3.91" transform="translate(-1123.000000, -2623.000000) translate(1123.000000, 2623.000000)"/>
                <path fill="#2673f0" d="M11.425-.075c1.104 0 2 .895 2 2v11.821c0 .098-.03.194-.083.276l-1.667 2.524c-.091.138-.277.176-.416.085-.033-.023-.062-.052-.085-.085l-1.667-2.524c-.054-.082-.082-.178-.082-.276V1.925c0-1.105.895-2 2-2z" transform="translate(-1123.000000, -2623.000000) translate(1123.000000, 2623.000000) translate(11.424621, 8.424621) rotate(-315.000000) translate(-11.424621, -8.424621)"/>
            </g>
        </g>
    </g>
</svg>
