<svg xmlns="http://www.w3.org/2000/svg" width="24" height="24" viewBox="0 0 24 24">
    <g fill="none" fill-rule="evenodd">
        <g>
            <g>
                <path d="M0 0H24V24H0z" transform="translate(-762 -2659) translate(762 2659)"/>
                <path stroke="#0A1B3D" stroke-width="1.25" d="M12 2c2.531 0 4.583 2.052 4.583 4.583 0 1.182-.447 2.26-1.182 3.073-.153.476-.234.984-.234 1.51 0 .912.243 1.765.669 2.501H8.164c.426-.736.67-1.59.67-2.5 0-.527-.082-1.035-.233-1.512-.737-.812-1.184-1.89-1.184-3.072C7.417 4.052 9.469 2 12 2zM5.333 13.667h13.334C20.507 13.667 22 15.159 22 17v2.5h0H2V17c0-1.84 1.492-3.333 3.333-3.333zM2 19.5H22V22H2z" transform="translate(-762 -2659) translate(762 2659)"/>
            </g>
        </g>
    </g>
</svg>
