<svg xmlns="http://www.w3.org/2000/svg" width="12" height="12" viewBox="0 0 12 12">
    <defs>
        <filter id="ys5a7rak9a" color-interpolation-filters="auto">
            <feColorMatrix in="SourceGraphic" values="0 0 0 0 0.354389 0 0 0 0 0.401566 0 0 0 0 0.490678 0 0 0 1.000000 0"/>
        </filter>
        <filter id="ivm66air5b" color-interpolation-filters="auto">
            <feColorMatrix in="SourceGraphic" values="0 0 0 0 0.354389 0 0 0 0 0.401566 0 0 0 0 0.490678 0 0 0 1.000000 0"/>
        </filter>
    </defs>
    <g fill="none" fill-rule="evenodd">
        <g>
            <g>
                <g>
                    <g filter="" transform="translate(-427 -3762) translate(120 3480.996) translate(307 88.004) translate(0 193)">
                        <g filter="">
                            <path fill="#A6AEC5" d="M6 0c3.314 0 6 2.686 6 6s-2.686 6-6 6-6-2.686-6-6 2.686-6 6-6zm0 1.8c-1.491 0-2.7 1.209-2.7 2.7l-.001 1.542C3.123 6.12 3 6.295 3 6.5c0 .205.123.38.299.458L3.3 9.5h1.4l-.001-2.501h2.6L7.3 9.5h1.4V6.958c.177-.077.3-.253.3-.458 0-.205-.123-.381-.3-.458V4.5l-.005-.17C8.607 2.917 7.434 1.8 6 1.8zm0 1.4c.718 0 1.3.582 1.3 1.3l-.001 1.499h-2.6L4.7 4.5l.007-.133C4.773 3.712 5.327 3.2 6 3.2z"/>
                        </g>
                    </g>
                </g>
            </g>
        </g>
    </g>
</svg>
