<svg xmlns="http://www.w3.org/2000/svg" xmlns:xlink="http://www.w3.org/1999/xlink" width="72" height="72" viewBox="0 0 72 72">
    <defs>
        <filter id="udvx739sta" width="103.2%" height="102.5%" x="-1.6%" y="-2.6%" filterUnits="objectBoundingBox">
            <feOffset dy="-2" in="SourceAlpha" result="shadowOffsetOuter1"/>
            <feColorMatrix in="shadowOffsetOuter1" result="shadowMatrixOuter1" values="0 0 0 0 0.933086008 0 0 0 0 0.933086008 0 0 0 0 0.933086008 0 0 0 1 0"/>
            <feOffset dy="-2" in="SourceAlpha" result="shadowOffsetOuter2"/>
            <feColorMatrix in="shadowOffsetOuter2" result="shadowMatrixOuter2" values="0 0 0 0 0 0 0 0 0 0 0 0 0 0 0 0 0 0 0.1 0"/>
            <feMerge>
                <feMergeNode in="shadowMatrixOuter1"/>
                <feMergeNode in="shadowMatrixOuter2"/>
            </feMerge>
        </filter>
        <filter id="u9xe0icjgc" width="112.9%" height="110.8%" x="-6.5%" y="-6.8%" filterUnits="objectBoundingBox">
            <feGaussianBlur in="SourceAlpha" result="shadowBlurInner1" stdDeviation="3.5"/>
            <feOffset dy="-1" in="shadowBlurInner1" result="shadowOffsetInner1"/>
            <feComposite in="shadowOffsetInner1" in2="SourceAlpha" k2="-1" k3="1" operator="arithmetic" result="shadowInnerInner1"/>
            <feColorMatrix in="shadowInnerInner1" values="0 0 0 0 0 0 0 0 0 0 0 0 0 0 0 0 0 0 0.155879521 0"/>
        </filter>
        <filter id="tpkhnxn2qd" width="101.5%" height="104%" x="-.8%" y="-3%" filterUnits="objectBoundingBox">
            <feOffset dy="-.5" in="SourceAlpha" result="shadowOffsetOuter1"/>
            <feColorMatrix in="shadowOffsetOuter1" values="0 0 0 0 0 0 0 0 0 0 0 0 0 0 0 0 0 0 0.280273438 0"/>
        </filter>
        <path id="4n388twy9b" d="M39.515 3.04l24 13.936C65.672 18.23 67 20.536 67 23.03v27.94c0 2.495-1.328 4.8-3.485 6.054l-24 13.935c-2.173 1.262-4.857 1.262-7.03 0l-24-13.935C6.328 55.77 5 53.464 5 50.97V23.03c0-2.495 1.328-4.8 3.485-6.054l24-13.935c2.173-1.262 4.857-1.262 7.03 0z"/>
        <path id="yl8vz0wf3e" d="M53 31.777s0-.15-.038-.152l-3.113-1.45c-.052-.023-.111-.023-.163.002L36.674 36.41c-.184.088-.398.09-.583.003l-2.794-1.295c-.094-.044-.095-.181 0-.225l13.08-6.078c.077-.035.075-.146-.003-.178l-3.482-1.454c-.05-.021-.105-.02-.154.003L29.777 33.23c-.174.08-.374.081-.547 0l-2.414-1.118c-.105-.05-.106-.2-.001-.249l13.058-6.162c.072-.034.072-.137 0-.17l-3.25-1.514c-.052-.024-.111-.024-.163 0l-16.259 7.673c-.269.127-.268.514.002.64l6.683 3.098.37.172.797.37v.002l2.952 1.378v-.011l5.317 2.465c.052.024.111.023.162 0l6.762-3.21c.074-.034.159.02.159.103v5.712c0 .076-.044.145-.113.177l-6.736 3.107c-.052.024-.11.023-.162-.001l-6.902-3.244c-.068-.033-.11-.101-.11-.176v-2.31c0-.076-.045-.145-.114-.177l-2.631-1.197c-.098-.045-.208.027-.208.135v5.447c0 .076.043.144.11.176l9.84 4.634c.05.025.11.025.162.001l9.704-4.476c.068-.032.112-.101.112-.177v-9.123c0-.061.035-.116.09-.143l3.465-1.65c.063-.03.136.016.136.087v5.176c0 .072.038.138.1.173l2.564 1.425c.13.072.288-.023.288-.172v-8.313l-.001-.006.001-.006"/>
    </defs>
    <g fill="none" fill-rule="evenodd">
        <g fill-rule="nonzero">
            <g>
                <g transform="translate(-573.000000, -844.000000) translate(573.000000, 844.000000)">
                    <use fill="#000" filter="url(#udvx739sta)" xlink:href="#4n388twy9b"/>
                    <use fill="#F2F2F2" xlink:href="#4n388twy9b"/>
                    <use fill="#000" filter="url(#u9xe0icjgc)" xlink:href="#4n388twy9b"/>
                </g>
                <g transform="translate(-573.000000, -844.000000) translate(573.000000, 844.000000)">
                    <use fill="#000" filter="url(#tpkhnxn2qd)" xlink:href="#yl8vz0wf3e"/>
                    <use fill="#D5D5D5" xlink:href="#yl8vz0wf3e"/>
                </g>
            </g>
        </g>
    </g>
</svg>
