<?xml version="1.0" encoding="UTF-8"?>
<svg width="40px" height="40px" viewBox="0 0 40 40" version="1.1" xmlns="http://www.w3.org/2000/svg" xmlns:xlink="http://www.w3.org/1999/xlink">
    <title>EB0530CB-0F27-45A4-99B0-55220D3F6908</title>
    <g id="스타일가이드" stroke="none" stroke-width="1" fill="none" fill-rule="evenodd">
        <g id="[통합에지인]스타일가이드" transform="translate(-238.000000, -2662.000000)">
            <g id="아이콘/하단인기" transform="translate(238.000000, 2662.000000)">
                <rect id="Rectangle-Copy-3" x="0" y="0" width="40" height="40"></rect>
                <g id="Group-5" transform="translate(6.000000, 9.000000)">
                    <g id="popularity-(1)" fill-rule="nonzero" stroke="#0A1B3D" stroke-width="1.5">
                        <path d="M25.3183594,0 L3.68164062,0 C1.65164946,0 0,1.65302814 0,3.68471379 L0,15.551308 C0,16.5801049 0.42104341,17.518334 1.18547061,18.1932743 C1.95830537,18.8755221 3.01080322,19.2360218 4.22924043,19.2360218 L11.6805801,19.2360218 L14.5068588,22 L17.2685318,19.2360218 L25.3183594,19.2360218 C27.3483505,19.2360218 29,17.583215 29,15.551308 L29,3.68471379 C29,1.65302814 27.3483505,0 25.3183594,0 Z" id="Shape"></path>
                    </g>
                    <text id="TOP" font-family="AppleSDGothicNeo-Bold, Apple SD Gothic Neo" font-size="11" font-weight="bold" letter-spacing="-0.275" fill="#0A1B3D">
                        <tspan x="4.567" y="14.4">TOP</tspan>
                    </text>
                </g>
            </g>
        </g>
    </g>
</svg>