<svg xmlns="http://www.w3.org/2000/svg" width="14" height="14" viewBox="0 0 14 14">
    <g fill="none" fill-rule="evenodd">
        <g fill="#A6AEC5" fill-rule="nonzero">
            <g>
                <g>
                    <g>
                        <g>
                            <path d="M7 0c3.866 0 7 3.134 7 7s-3.134 7-7 7-7-3.134-7-7 3.134-7 7-7zm-.092 9.926c-.288 0-.524.096-.707.288-.21.193-.301.44-.301.742s.091.55.3.742c.184.192.42.302.708.302.289 0 .524-.096.734-.288.183-.193.288-.454.288-.756s-.105-.55-.288-.742c-.197-.192-.445-.288-.734-.288zM7.144 2c-.97 0-1.73.288-2.292.865C4.275 3.442 4 4.24 4 5.255h1.493c0-.59.105-1.043.328-1.36.262-.37.668-.549 1.231-.549.446 0 .8.124 1.048.385.236.26.367.618.367 1.071 0 .344-.118.673-.353.975l-.158.193c-.851.796-1.362 1.373-1.532 1.744-.184.371-.262.824-.262 1.346v.193h1.506V9.06c0-.33.066-.631.197-.906.118-.247.288-.48.524-.673.628-.577 1.008-.948 1.126-1.085.315-.44.485-1.003.485-1.69 0-.838-.262-1.497-.786-1.978C8.69 2.234 7.996 2 7.144 2z" transform="translate(-304 -497) translate(120 232) translate(40 142) translate(0 116) translate(144 7)"/>
                        </g>
                    </g>
                </g>
            </g>
        </g>
    </g>
</svg>
