<svg xmlns="http://www.w3.org/2000/svg" width="12" height="12" viewBox="0 0 12 12">
    <g fill="none" fill-rule="evenodd">
        <g fill="#A6AEC5">
            <g>
                <path d="M4 1h4c2.21 0 4 1.79 4 4v.356C12 7.37 10.369 9 8.356 9h-1.19l-2.97 3V9H4C1.79 9 0 7.21 0 5s1.79-4 4-4zM3 6c.552 0 1-.448 1-1s-.448-1-1-1-1 .448-1 1 .448 1 1 1zm3 0c.552 0 1-.448 1-1s-.448-1-1-1-1 .448-1 1 .448 1 1 1zm3 0c.552 0 1-.448 1-1s-.448-1-1-1-1 .448-1 1 .448 1 1 1z" transform="translate(-891 -2586) translate(891 2586)"/>
            </g>
        </g>
    </g>
</svg>
