<svg xmlns="http://www.w3.org/2000/svg" width="14" height="14" viewBox="0 0 14 14">
    <g fill="none" fill-rule="evenodd">
        <g fill="#A6AEC5" fill-rule="nonzero">
            <g>
                <g>
                    <path d="M7 0c3.866 0 7 3.134 7 7s-3.134 7-7 7-7-3.134-7-7 3.134-7 7-7zm-.006 10.097c-.284 0-.517.088-.697.264-.207.177-.297.404-.297.681s.09.504.297.68c.18.177.413.278.697.278.283 0 .516-.088.722-.265.18-.176.284-.416.284-.693 0-.277-.103-.504-.284-.68-.193-.177-.439-.265-.722-.265zM7.87 3H6.129l.323 6.416h1.096L7.871 3z" transform="translate(-599 -2544) translate(482 2543) translate(117 1)"/>
                </g>
            </g>
        </g>
    </g>
</svg>
