<svg xmlns="http://www.w3.org/2000/svg" width="80" height="80" viewBox="0 0 80 80">
    <g fill="none" fill-rule="evenodd" stroke-linecap="round" stroke-linejoin="round">
        <g stroke="#2673f0" stroke-width="4">
            <g>
                <path d="M52.53 13.216l18.602-4.134c2.157-.48 4.294.88 4.773 3.037.063.285.095.576.095.867v47.805c0 1.875-1.302 3.498-3.132 3.905L40 72h0V28.835c0-7.5 5.209-13.992 12.53-15.62z" transform="translate(-614.000000, -2747.000000) translate(614.000000, 2747.000000)"/>
                <path d="M16.53 13.216l18.602-4.134c2.157-.48 4.294.88 4.773 3.037.063.285.095.576.095.867v47.805c0 1.875-1.302 3.498-3.132 3.905L4 72h0V28.835c0-7.5 5.209-13.992 12.53-15.62z" transform="translate(-614.000000, -2747.000000) translate(614.000000, 2747.000000) translate(22.000000, 40.000000) scale(-1, 1) translate(-22.000000, -40.000000)"/>
                <path d="M50 30L66 26M50 38L66 34M6.105 64L40 72 6.105 74z" transform="translate(-614.000000, -2747.000000) translate(614.000000, 2747.000000)"/>
                <path d="M40 64L73.895 72 40 74z" transform="translate(-614.000000, -2747.000000) translate(614.000000, 2747.000000) translate(56.947678, 69.000000) scale(-1, 1) translate(-56.947678, -69.000000)"/>
            </g>
        </g>
    </g>
</svg>
