<svg xmlns="http://www.w3.org/2000/svg" width="15" height="15" viewBox="0 0 15 15">
    <defs>
        <filter id="byinxd5bma">
            <feColorMatrix in="SourceGraphic" values="0 0 0 0 0.149020 0 0 0 0 0.450980 0 0 0 0 0.941176 0 0 0 1.000000 0"/>
        </filter>
    </defs>
    <g fill="none" fill-rule="evenodd">
        <g>
            <g filter="" transform="translate(-775 -1213) translate(629 1200)">
                <g>
                    <g fill="#2673f0" fill-rule="nonzero">
                        <path d="M12.39 1.096h-.658V0h-1.096v1.096H3.399V0H2.303v1.096h-.658C.738 1.096 0 1.834 0 2.741v9.65c0 .906.738 1.644 1.645 1.644H12.39c.907 0 1.645-.738 1.645-1.645V2.741c0-.907-.738-1.645-1.645-1.645zm.549 11.294c0 .303-.246.549-.549.549H1.645c-.303 0-.549-.246-.549-.549V5.154H12.94v7.236zm0-8.333H1.096V2.741c0-.302.246-.548.549-.548h.658v1.096h1.096V2.193h7.237v1.096h1.096V2.193h.658c.303 0 .549.246.549.548v1.316z" transform="translate(146 13) translate(.482 .482)"/>
                        <path d="M2.083 6.305H3.1790000000000003V7.401H2.083zM4.276 6.305H5.372V7.401H4.276zM6.469 6.305H7.565V7.401H6.469zM8.662 6.305H9.758000000000001V7.401H8.662zM10.855 6.305H11.951V7.401H10.855zM2.083 8.498H3.1790000000000003V9.594H2.083zM4.276 8.498H5.372V9.594H4.276zM6.469 8.498H7.565V9.594H6.469zM8.662 8.498H9.758000000000001V9.594H8.662zM2.083 10.691H3.1790000000000003V11.787H2.083zM4.276 10.691H5.372V11.787H4.276zM6.469 10.691H7.565V11.787H6.469zM8.662 10.691H9.758000000000001V11.787H8.662zM10.855 8.498H11.951V9.594H10.855z" transform="translate(146 13) translate(.482 .482)"/>
                    </g>
                </g>
            </g>
        </g>
    </g>
</svg>
