<svg xmlns="http://www.w3.org/2000/svg" width="12" height="12" viewBox="0 0 12 12">
    <g fill="none" fill-rule="evenodd">
        <g fill="#E6531E">
            <g>
                <g>
                    <path d="M6 0c3.314 0 6 2.686 6 6s-2.686 6-6 6-6-2.686-6-6 2.686-6 6-6zM4.502 2.51c-.397-.415-1.116-.183-1.195.386L3.3 3v5.556l.006.095c.042.307.284.551.59.597L4 9.256l.095-.006c.307-.042.552-.284.597-.59l.008-.104V5.17l2.732 3.794.066.08c.397.416 1.116.184 1.195-.385l.007-.104V3l-.006-.095c-.042-.307-.284-.552-.59-.597L8 2.3l-.095.006c-.307.042-.552.284-.597.59L7.3 3v3.385L4.568 2.591l-.066-.08z" transform="translate(-202.000000, -615.000000) translate(0.000000, 595.000000) translate(202.000000, 20.000000)"/>
                </g>
            </g>
        </g>
    </g>
</svg>
