<svg xmlns="http://www.w3.org/2000/svg" width="20" height="20" viewBox="0 0 20 20">
    <g fill="none" fill-rule="evenodd">
        <g fill="#A6AEC5">
            <g>
                <g>
                    <g>
                        <path d="M10 20c5.523 0 10-4.477 10-10S15.523 0 10 0 0 4.477 0 10s4.477 10 10 10zM9 5.2C6.901 5.2 5.2 6.901 5.2 9c0 2.099 1.701 3.8 3.8 3.8 2.099 0 3.8-1.701 3.8-3.8 0-2.099-1.701-3.8-3.8-3.8zm0 1.6c1.215 0 2.2.985 2.2 2.2 0 1.215-.985 2.2-2.2 2.2-1.215 0-2.2-.985-2.2-2.2 0-1.215.985-2.2 2.2-2.2zm3.566 4.634l2 2-1.132 1.132-2-2 1.132-1.132z" transform="translate(-451 -233) translate(427 96) translate(24) translate(0 137)"/>
                    </g>
                </g>
            </g>
        </g>
    </g>
</svg>
