<svg width="20" height="20" viewBox="0 0 20 20" fill="none" xmlns="http://www.w3.org/2000/svg">
<path d="M14.1667 17.8125H3.61978C3.10178 17.8125 2.605 17.6067 2.23871 17.2404C1.87243 16.8742 1.66666 16.3774 1.66666 15.8594V4.14062C1.66666 3.62262 1.87243 3.12584 2.23871 2.75956C2.605 2.39328 3.10178 2.1875 3.61978 2.1875H14.1667V5.3125" stroke="#2573ef" stroke-linecap="round" stroke-linejoin="round"/>
<path d="M14.1667 15.8333C16.4679 15.8333 18.3333 13.9679 18.3333 11.6667C18.3333 9.36548 16.4679 7.5 14.1667 7.5C11.8655 7.5 10 9.36548 10 11.6667C10 13.9679 11.8655 15.8333 14.1667 15.8333Z" stroke="#2573ef" stroke-linecap="round" stroke-linejoin="round"/>
<path d="M19.1667 17.5L16.6667 15" stroke="#2573ef" stroke-linecap="round" stroke-linejoin="round"/>
</svg>
