<svg xmlns="http://www.w3.org/2000/svg" width="40" height="40" viewBox="0 0 40 40">
    <g fill="none" fill-rule="evenodd">
        <g>
            <g>
                <path d="M0 0H40V40H0z" transform="translate(-260 -8) translate(260 8)"/>
                <g stroke="#0A1B3D" stroke-width="1.6">
                    <path d="M0 16.266v5.247h5.29L20.552 6.806c.775-.747.798-1.981.05-2.757l-.04-.041-2.733-2.67c-.76-.742-1.976-.739-2.733.009L0 16.267h0z" transform="translate(-260 -8) translate(260 8) translate(9 9)"/>
                    <path stroke-linecap="square" d="M9.78 21.513L22 21.513" transform="translate(-260 -8) translate(260 8) translate(9 9)"/>
                </g>
                <path stroke="#0A1B3D" stroke-width="1.6" d="M22.049 12.613L27.454 17.885" transform="translate(-260 -8) translate(260 8)"/>
            </g>
        </g>
    </g>
</svg>
