<svg xmlns="http://www.w3.org/2000/svg" width="12" height="12" viewBox="0 0 12 12">
    <defs>
        <filter id="kzitajmwsa">
            <feColorMatrix in="SourceGraphic" values="0 0 0 0 0.354389 0 0 0 0 0.401566 0 0 0 0 0.490678 0 0 0 1.000000 0"/>
        </filter>
    </defs>
    <g fill="none" fill-rule="evenodd">
        <g>
            <g>
                <g>
                    <g filter="" transform="translate(-380 -642) translate(120 632) translate(246) translate(14 10)">
                        <g>
                            <path fill="#5a667d" fill-rule="nonzero" d="M9.735 9.542L9.4 8.944c-.353-.665.122-1.488.875-1.515l.685-.009c.536-.013.945-.403.972-.891V5.44c-.004-.541-.384-.947-.867-.967l-.79.01c-.753.028-1.225-.822-.85-1.472l.35-.606c.275-.476.117-1.087-.35-1.357l-.85-.49C8.108.288 7.5.456 7.225.933l-.325.563c-.375.65-1.347.665-1.7 0L4.84.942C4.565.437 3.955.316 3.518.583l-.85.49c-.463.311-.635.904-.403 1.385l.335.598c.378.622-.122 1.488-.85 1.472l-.685.009c-.536.013-.945.402-.972.89v1.088c.005.58.44 1.005.972.966l.66.035c.753-.028 1.225.822.85 1.472l-.35.606c-.275.476-.117 1.087.35 1.357l.85.49c.467.27 1.075.102 1.35-.375l.325-.563c.375-.65 1.347-.665 1.7 0l.335.598c.275.505.885.626 1.322.36l.85-.492c.488-.353.66-.946.428-1.427zM5 7.732c-.935-.54-1.25-1.76-.7-2.713.55-.953 1.765-1.29 2.7-.751.935.54 1.25 1.76.7 2.713-.55.953-1.765 1.29-2.7.751z"/>
                        </g>
                    </g>
                </g>
            </g>
        </g>
    </g>
</svg>
