<svg width="20" height="20" viewBox="0 0 20 20" fill="none" xmlns="http://www.w3.org/2000/svg">
<rect width="20" height="20" rx="3" fill="white"/>
<path fill-rule="evenodd" clip-rule="evenodd" d="M14.7225 14.0895L15.1878 14.9194C15.5107 15.587 15.2711 16.4109 14.594 16.902L13.4135 17.5836C12.8058 17.9545 11.9587 17.7861 11.5767 17.0845L11.1115 16.2546C10.6219 15.3304 9.27128 15.3525 8.75044 16.2546L8.29906 17.0365C7.91711 17.698 7.07338 17.9326 6.4241 17.5577L5.2436 16.8761C4.59432 16.5013 4.37559 15.6533 4.75754 14.9918L5.24365 14.1498C5.76448 13.2477 5.10827 12.0669 4.06316 12.105L3.14653 12.057C2.40697 12.1111 1.80283 11.5217 1.7959 10.7159L1.79594 9.20536C1.83435 8.52702 2.40125 7.98616 3.1466 7.96743L4.09796 7.95539C5.10834 7.97742 5.80279 6.77461 5.27852 5.9106L4.81327 5.08068C4.49037 4.41313 4.72996 3.58921 5.37231 3.15819L6.55284 2.47659C7.16047 2.10571 8.00766 2.27409 8.38958 2.97571L8.88955 3.7455C9.37911 4.66964 10.7298 4.64757 11.2506 3.74546L11.702 2.96363C12.0839 2.30208 12.9277 2.06752 13.5769 2.44238L14.7574 3.12395C15.4067 3.49881 15.6254 4.34678 15.2435 5.00832L14.7574 5.85029C14.2366 6.7524 14.8928 7.93314 15.9379 7.89503L17.0352 7.88061C17.7067 7.90839 18.2334 8.47194 18.2399 9.22409L18.2398 10.7346C18.2014 11.4129 17.6345 11.9538 16.8892 11.9725L15.9378 11.9846C14.8927 12.0227 14.233 13.1653 14.7225 14.0895ZM7.6395 8.63691C6.87562 9.96 7.31307 11.6559 8.61163 12.4057C9.91019 13.1554 11.5976 12.6863 12.3615 11.3632C13.1254 10.0401 12.688 8.34414 11.3894 7.59442C10.0909 6.84469 8.40339 7.31382 7.6395 8.63691Z" fill="#5A667D"/>
</svg>
