<svg xmlns="http://www.w3.org/2000/svg" xmlns:xlink="http://www.w3.org/1999/xlink" width="19" height="18" viewBox="0 0 19 18">
    <defs>
        <filter id="s236iar38a" width="111.1%" height="105.6%" x="-2.8%" y="-2.8%" filterUnits="objectBoundingBox">
            <feOffset dx="1" in="SourceAlpha" result="shadowOffsetOuter1"/>
            <feComposite in="shadowOffsetOuter1" in2="SourceAlpha" operator="out" result="shadowOffsetOuter1"/>
            <feColorMatrix in="shadowOffsetOuter1" values="0 0 0 0 0.294117647 0 0 0 0 0.623529412 0 0 0 0 0.278431373 0 0 0 1 0"/>
        </filter>
        <circle id="t4g4rwi4qb" cx="9" cy="9" r="9"/>
    </defs>
    <g fill="none" fill-rule="evenodd">
        <g>
            <g>
                <g>
                    <g transform="translate(-1253 -3645) translate(120 3532.996) translate(307 88.004) translate(826 24)">
                        <g>
                            <use fill="#000" filter="url(#s236iar38a)" xlink:href="#t4g4rwi4qb"/>
                            <circle cx="9" cy="9" r="8.6" fill="#FFF" stroke="#4B9F47" stroke-linejoin="square" stroke-width=".8"/>
                        </g>
                        <circle cx="9" cy="9" r="7" fill="#FFF" stroke="#4B9F47" stroke-width=".4"/>
                        <path fill="#4B9F47" d="M14.708 7.272s0-.054-.014-.055l-1.132-.534c-.019-.008-.04-.008-.06 0L8.772 8.977c-.067.033-.145.033-.212.002L7.543 8.5c-.034-.016-.035-.066 0-.082L12.3 6.183c.027-.013.027-.054-.002-.066l-1.266-.535c-.018-.007-.038-.007-.056.002L6.263 7.807c-.063.03-.136.03-.2 0l-.877-.411c-.038-.018-.038-.073 0-.092l4.748-2.266c.026-.013.026-.05 0-.063l-1.182-.557c-.019-.008-.04-.008-.059 0L2.781 7.241c-.098.046-.098.189 0 .235l2.43 1.14.135.063.29.136 1.074.508v-.005l1.933.907c.019.009.04.009.059 0l2.459-1.18c.027-.013.058.007.058.037v2.101c0 .028-.016.054-.041.066l-2.45 1.142c-.019.01-.04.009-.059 0l-2.51-1.193c-.024-.012-.04-.037-.04-.065v-.85c0-.028-.016-.053-.041-.065l-.957-.44c-.035-.016-.075.01-.075.05v2.003c0 .028.015.053.04.065l3.578 1.705c.018.009.04.009.058 0l3.53-1.647c.024-.011.04-.037.04-.065V8.534c0-.023.013-.043.032-.053l1.26-.607c.024-.011.05.006.05.032V9.81c0 .027.014.05.037.064l.932.524c.047.026.105-.009.105-.064V7.277v-.002-.003"/>
                    </g>
                </g>
            </g>
        </g>
    </g>
</svg>
