<svg xmlns="http://www.w3.org/2000/svg" width="40" height="40" viewBox="0 0 40 40">
    <g fill="none" fill-rule="evenodd">
        <g>
            <g>
                <path d="M0 0H40V40H0z" transform="translate(-183 -2540) translate(183 2540)"/>
                <path stroke="#0A1B3D" stroke-linecap="round" stroke-linejoin="round" stroke-width="1.6" d="M20 8c.828 0 1.5.672 1.5 1.5V11h0-3V9.5c0-.828.672-1.5 1.5-1.5zM20 32c1.657 0 3-1.343 3-3h0-6c0 1.657 1.343 3 3 3zM20 11c3.935 0 7.125 3.19 7.125 7.125V21.5c0 2.478 1 4.978 3 7.5H9.875c2-2.01 3-4.51 3-7.5v-3.375C12.875 14.19 16.065 11 20 11z" transform="translate(-183 -2540) translate(183 2540)"/>
            </g>
        </g>
    </g>
</svg>
