<?xml version="1.0" encoding="utf-8"?>
<!-- Generator: Adobe Illustrator 16.0.0, SVG Export Plug-In . SVG Version: 6.00 Build 0)  -->
<!DOCTYPE svg PUBLIC "-//W3C//DTD SVG 1.1//EN" "http://www.w3.org/Graphics/SVG/1.1/DTD/svg11.dtd">
<svg version="1.1" id="Layer_1" xmlns="http://www.w3.org/2000/svg" xmlns:xlink="http://www.w3.org/1999/xlink" x="0px" y="0px"
	 width="40px" height="40px" viewBox="0 0 40 40" enable-background="new 0 0 40 40" xml:space="preserve">
<path fill="#333333" d="M30.208,7.334H11.792c-1.654,0-3,1.346-3,3v19.332c0,1.654,1.346,3,3,3h18.416c0.553,0,1-0.447,1-1V8.334
	C31.208,7.781,30.761,7.334,30.208,7.334z M11.792,9.334h17.416v15.5H14.167c-1.537,0-2.602,0.256-3.375,0.582V10.334
	C10.792,9.782,11.241,9.334,11.792,9.334z M11.792,30.666c-0.551,0-1-0.448-1-1v-1.938c0.48-0.404,1.357-0.895,3.375-0.895h15.042
	v3.832H11.792z"/>
</svg>
