<?xml version="1.0" encoding="utf-8"?>
<!-- Generator: Adobe Illustrator 16.0.0, SVG Export Plug-In . SVG Version: 6.00 Build 0)  -->
<!DOCTYPE svg PUBLIC "-//W3C//DTD SVG 1.1//EN" "http://www.w3.org/Graphics/SVG/1.1/DTD/svg11.dtd">
<svg version="1.1" id="Layer_1" xmlns="http://www.w3.org/2000/svg" xmlns:xlink="http://www.w3.org/1999/xlink" x="0px" y="0px"
	 width="40px" height="40px" viewBox="0 0 40 40" enable-background="new 0 0 40 40" xml:space="preserve">
<g>
	<path fill="#333333" d="M20,18.083c-2.964,0-5.375-2.411-5.375-5.375S17.036,7.333,20,7.333s5.375,2.411,5.375,5.375
		S22.965,18.083,20,18.083z M20,9.333c-1.861,0-3.375,1.514-3.375,3.375s1.514,3.375,3.375,3.375c1.86,0,3.375-1.514,3.375-3.375
		S21.86,9.333,20,9.333z"/>
	<path fill="#333333" d="M30.208,32.666c-0.553,0-1-0.447-1-1c0-3.186-1.925-9.207-9.208-9.207c-7.284,0-9.208,6.021-9.208,9.207
		c0,0.553-0.448,1-1,1s-1-0.447-1-1c0-3.876,2.343-11.207,11.208-11.207s11.208,7.331,11.208,11.207
		C31.208,32.219,30.761,32.666,30.208,32.666z"/>
</g>
<path fill="#333333" d="M31.667,20.271c-0.266,0-0.52-0.105-0.707-0.293l-2.916-2.917c-0.391-0.391-0.391-1.024,0-1.414
	c0.391-0.391,1.023-0.391,1.414,0L31.61,17.8l3.672-4.285c0.361-0.418,0.992-0.466,1.41-0.108c0.42,0.359,0.469,0.991,0.107,1.41
	l-4.375,5.104c-0.181,0.211-0.441,0.338-0.721,0.348C31.692,20.271,31.681,20.271,31.667,20.271z"/>
</svg>
