<?xml version="1.0" encoding="utf-8"?>
<!-- Generator: Adobe Illustrator 16.0.0, SVG Export Plug-In . SVG Version: 6.00 Build 0)  -->
<!DOCTYPE svg PUBLIC "-//W3C//DTD SVG 1.1//EN" "http://www.w3.org/Graphics/SVG/1.1/DTD/svg11.dtd">
<svg version="1.1" id="Layer_1" xmlns="http://www.w3.org/2000/svg" xmlns:xlink="http://www.w3.org/1999/xlink" x="0px" y="0px"
	 width="24px" height="24px" viewBox="0 0 24 24" enable-background="new 0 0 24 24" xml:space="preserve">
<path fill="#333333" d="M20.53,19.47l-3.546-3.546C18.088,14.586,18.75,12.87,18.75,11c0-4.28-3.47-7.75-7.75-7.75
	S3.25,6.72,3.25,11s3.47,7.75,7.75,7.75c1.87,0,3.586-0.662,4.924-1.766l3.546,3.546c0.293,0.293,0.768,0.293,1.061,0
	S20.823,19.763,20.53,19.47z M11,17.25c-3.452,0-6.25-2.799-6.25-6.25c0-3.452,2.798-6.25,6.25-6.25c3.451,0,6.25,2.798,6.25,6.25
	C17.25,14.451,14.451,17.25,11,17.25z"/>
</svg>
