<svg width="30" height="30" viewBox="0 0 30 30" fill="none" xmlns="http://www.w3.org/2000/svg">
<path fill-rule="evenodd" clip-rule="evenodd" d="M5 15C5 9.47715 9.47715 5 15 5C20.5228 5 25 9.47715 25 15C25 20.5228 20.5228 25 15 25C9.47715 25 5 20.5228 5 15ZM15 2.5C8.09644 2.5 2.5 8.09644 2.5 15C2.5 21.9036 8.09644 27.5 15 27.5C21.9036 27.5 27.5 21.9036 27.5 15C27.5 8.09644 21.9036 2.5 15 2.5ZM15 8.12462C15.6904 8.12462 16.25 8.68426 16.25 9.37462V16.8347C16.25 17.525 15.6904 18.0847 15 18.0847C14.3096 18.0847 13.75 17.525 13.75 16.8347V9.37462C13.75 8.68426 14.3096 8.12462 15 8.12462ZM16.25 20.6263C16.25 21.3162 15.6904 21.8754 15 21.8754C14.3096 21.8754 13.75 21.3162 13.75 20.6263C13.75 19.9363 14.3096 19.3771 15 19.3771C15.6904 19.3771 16.25 19.9363 16.25 20.6263Z" fill="#42AEA7"/>
</svg>
