<svg width="26" height="30" viewBox="0 0 26 30" fill="none" xmlns="http://www.w3.org/2000/svg">
<path d="M15.3067 27C15.0723 27.4041 14.7358 27.7396 14.331 27.9727C13.9262 28.2059 13.4672 28.3286 13 28.3286C12.5328 28.3286 12.0739 28.2059 11.669 27.9727C11.2642 27.7396 10.9278 27.4041 10.6933 27M21 9.66669C21 7.54496 20.1571 5.51012 18.6569 4.00983C17.1566 2.50954 15.1217 1.66669 13 1.66669C10.8783 1.66669 8.84344 2.50954 7.34315 4.00983C5.84286 5.51012 5 7.54496 5 9.66669C5 19 1 21.6667 1 21.6667H25C25 21.6667 21 19 21 9.66669Z" stroke="#FFBF00" stroke-width="2" stroke-linecap="round" stroke-linejoin="round"/>
</svg>
