<svg width="68" height="68" viewBox="0 0 68 68" fill="none" xmlns="http://www.w3.org/2000/svg">
<path d="M31.232 1.79189C32.7569 0.253873 35.2431 0.253873 36.768 1.79189C37.9655 2.99982 39.8081 3.29166 41.3204 2.51292C43.2458 1.52138 45.6104 2.28967 46.5853 4.22361C47.351 5.7425 49.0133 6.58945 50.6921 6.31613C52.8298 5.96812 54.8412 7.4295 55.1708 9.57005C55.4296 11.2512 56.7488 12.5704 58.43 12.8292C60.5705 13.1588 62.0319 15.1702 61.6839 17.3079C61.4106 18.9867 62.2575 20.649 63.7764 21.4147C65.7103 22.3896 66.4786 24.7542 65.4871 26.6796C64.7083 28.1919 65.0002 30.0345 66.2081 31.232C67.7461 32.7569 67.7461 35.2431 66.2081 36.768C65.0002 37.9655 64.7083 39.8081 65.4871 41.3204C66.4786 43.2458 65.7103 45.6104 63.7764 46.5853C62.2575 47.351 61.4106 49.0133 61.6839 50.6921C62.0319 52.8298 60.5705 54.8412 58.43 55.1708C56.7488 55.4296 55.4296 56.7488 55.1708 58.43C54.8412 60.5705 52.8298 62.0319 50.6921 61.6839C49.0133 61.4106 47.351 62.2575 46.5853 63.7764C45.6104 65.7103 43.2458 66.4786 41.3204 65.4871C39.8081 64.7083 37.9655 65.0002 36.768 66.2081C35.2431 67.7461 32.7569 67.7461 31.232 66.2081C30.0345 65.0002 28.1919 64.7083 26.6796 65.4871C24.7542 66.4786 22.3896 65.7103 21.4147 63.7764C20.649 62.2575 18.9867 61.4106 17.3079 61.6839C15.1702 62.0319 13.1588 60.5705 12.8292 58.43C12.5704 56.7488 11.2512 55.4296 9.57005 55.1708C7.4295 54.8412 5.96812 52.8298 6.31613 50.6921C6.58945 49.0133 5.7425 47.351 4.22361 46.5853C2.28967 45.6104 1.52138 43.2458 2.51292 41.3204C3.29166 39.8081 2.99982 37.9655 1.79189 36.768C0.253873 35.2431 0.253873 32.7569 1.79189 31.232C2.99982 30.0345 3.29166 28.1919 2.51292 26.6796C1.52138 24.7542 2.28967 22.3896 4.22361 21.4147C5.7425 20.649 6.58945 18.9867 6.31613 17.3079C5.96812 15.1702 7.4295 13.1588 9.57005 12.8292C11.2512 12.5704 12.5704 11.2512 12.8292 9.57005C13.1588 7.4295 15.1702 5.96812 17.3079 6.31613C18.9867 6.58945 20.649 5.7425 21.4147 4.22361C22.3896 2.28967 24.7542 1.52138 26.6796 2.51292C28.1919 3.29166 30.0345 2.99982 31.232 1.79189Z" fill="#FFBF00"/>
</svg>
