<svg width="30" height="28" viewBox="0 0 30 28" fill="none" xmlns="http://www.w3.org/2000/svg">
<line x1="26" y1="24" x2="26" y2="28" stroke="#FFBF00" stroke-width="2"/>
<line x1="4" y1="24" x2="4" y2="28" stroke="#FFBF00" stroke-width="2"/>
<path d="M6 4C6 2.34315 7.34315 1 9 1H21C22.6569 1 24 2.34315 24 4V10C22.8954 10 22 10.8954 22 12V13.5C22 14.3284 21.3284 15 20.5 15H9.5C8.67157 15 8 14.3284 8 13.5V12C8 10.8954 7.10457 10 6 10V4Z" stroke="#FFBF00" stroke-width="2"/>
<path d="M8 14V15H9H21H22V14V11C22 10.4477 22.4477 10 23 10H28C28.5523 10 29 10.4477 29 11V20C29 21.6569 27.6569 23 26 23H4C2.34315 23 1 21.6569 1 20V11C1 10.4477 1.44772 10 2 10H7C7.55228 10 8 10.4477 8 11V14Z" stroke="#FFBF00" stroke-width="2"/>
</svg>
