<svg width="30" height="29" viewBox="0 0 30 29" fill="none" xmlns="http://www.w3.org/2000/svg">
<path d="M22.3333 10.3333H23.6667C25.0812 10.3333 26.4377 10.8952 27.4379 11.8954C28.4381 12.8956 29 14.2522 29 15.6667C29 17.0812 28.4381 18.4377 27.4379 19.4379C26.4377 20.4381 25.0812 21 23.6667 21H22.3333M22.3333 10.3333H1V22.3333C1 23.7478 1.5619 25.1044 2.5621 26.1046C3.56229 27.1048 4.91885 27.6667 6.33333 27.6667H17C18.4145 27.6667 19.771 27.1048 20.7712 26.1046C21.7714 25.1044 22.3333 23.7478 22.3333 22.3333L22.3333 10.3333ZM6.33334 1V5M11.6667 1V5M17 1V5" stroke="#FFBF00" stroke-width="2" stroke-linecap="round" stroke-linejoin="round"/>
</svg>
