<?xml version="1.0" encoding="utf-8"?>
<!-- Generator: Adobe Illustrator 16.0.0, SVG Export Plug-In . SVG Version: 6.00 Build 0)  -->
<!DOCTYPE svg PUBLIC "-//W3C//DTD SVG 1.1//EN" "http://www.w3.org/Graphics/SVG/1.1/DTD/svg11.dtd">
<svg version="1.1" id="Layer_1" xmlns="http://www.w3.org/2000/svg" xmlns:xlink="http://www.w3.org/1999/xlink" x="0px" y="0px"
	 width="66px" height="22px" viewBox="1.41 -0.08 66 22" enable-background="new 1.41 -0.08 66 22" xml:space="preserve">
<path fill="#32353D" d="M56.808,10.919h-2.89v10.513h2.89V10.919z"/>
<path fill="#32353D" d="M66.881,6.238h-2.89v15.193h2.89V6.238z"/>
<path fill="#32353D" d="M61.834,8.578h-2.89v12.854h2.89V8.578z"/>
<path fill="#32353D" d="M49.687,10.919l-1.677,5.925l-1.675-5.925h-2.616l-1.677,5.925l-1.675-5.925h-2.88l3.129,10.513h2.57
	l1.84-6.475l1.84,6.475h2.569l3.13-10.513H49.687z"/>
<path fill="#32353D" d="M21.576,6.238v5.393c-0.808-0.646-1.732-1.018-3.153-1.018c-2.894,0-5.114,2.218-5.114,5.445
	c0,3.229,2.023,5.678,5.114,5.678c1.419,0,2.367-0.537,3.153-1.248v0.943h2.89V6.238H21.576z M18.865,19.18
	c-1.424,0-2.568-1.156-2.568-3.121c0-1.965,1.207-2.889,2.58-2.889c1.438,0,2.697,1.12,2.697,2.889
	C21.576,17.604,20.812,19.18,18.865,19.18z"/>
<path fill="#32353D" d="M33.287,10.919v5.274c0,2.453-1.35,2.986-2.321,2.986c-1.4,0-1.96-1.063-1.96-2.201v-6.06h-2.91v5.653
	c0,3.229,1.224,5.164,4.314,5.164c1.003,0,2.295-0.654,2.877-1.248v0.943h2.889V10.919H33.287z"/>
<path fill="#32353D" d="M12.01,16.143c0-2.979-1.969-5.541-5.047-5.541c-3.925,0-5.552,3.035-5.552,5.711
	c0,3.621,2.416,5.607,6.099,5.607c1.469,0,2.678-0.293,3.949-0.682l-0.682-2.381c-1.328,0.299-2.015,0.494-3.036,0.494
	c-1.407,0-3.061-0.357-3.412-2.139h7.615C12.001,16.957,12.01,16.336,12.01,16.143z M4.39,15.023
	c0.269-1.004,1.021-1.854,2.575-1.854c1.438,0,2.263,1.08,2.389,1.854H4.39z"/>
<path fill="#FFAE00" d="M42.188,5.087c-0.955,0-3.552-0.05-4.65-0.112v2.771c0.767,0.042,2.731,0.116,4.618,0.116
	c11.848,0,19.466-2.363,25.255-5.544L66.02-0.08C62.409,1.895,55.504,5.087,42.188,5.087z"/>
</svg>
