<svg width="58" height="58" viewBox="0 0 58 58" fill="none" xmlns="http://www.w3.org/2000/svg">
<circle cx="29" cy="29" r="29" fill="#F9E44D"/>
<g clip-path="url(#clip0)">
<path d="M25.616 25.4081L24.6934 28.0094H26.5374L25.616 25.4081Z" fill="black"/>
<path d="M29 14.3333C20.164 14.3333 13 19.9439 13 26.8653C13 31.3399 15.9947 35.2666 20.5 37.4826C18.768 43.4159 18.7227 43.4426 19.016 43.6146C19.384 43.8293 19.8613 43.6079 26.1587 39.1999C27.0813 39.3293 28.0307 39.3973 29 39.3973C37.836 39.3973 45 33.7866 45 26.8653C45 19.9439 37.836 14.3333 29 14.3333ZM21.0773 30.3639C21.0773 30.8466 20.6627 31.2399 20.1547 31.2399C19.6467 31.2399 19.232 30.8466 19.232 30.3639V24.9159H17.792C17.292 24.9159 16.8867 24.5133 16.8867 24.0186C16.8867 23.5239 17.2907 23.1199 17.7907 23.1199H22.5173C23.0173 23.1199 23.4227 23.5226 23.4227 24.0173C23.4227 24.5119 23.016 24.9159 22.5173 24.9159H21.0773V30.3639ZM28.248 31.2279C27.288 31.2279 27.4653 30.4746 27.0227 29.6346H24.208C23.7693 30.4679 23.9413 31.2279 22.9827 31.2279C22.0587 31.2293 21.896 30.6666 22.1773 29.7999L24.3853 24.0266C24.5413 23.5866 25.0133 23.1346 25.6147 23.1213C26.2173 23.1346 26.6907 23.5866 26.8453 24.0266C28.3027 28.5466 30.384 31.2293 28.248 31.2279ZM33.5 31.1053H30.5387C28.9933 31.1053 29.9333 29.0186 29.6547 24.0373C29.6547 23.5319 30.0773 23.1199 30.5973 23.1199C31.1173 23.1199 31.54 23.5306 31.54 24.0373V29.4239H33.5013C33.9893 29.4239 34.3853 29.8013 34.3853 30.2639C34.384 30.7279 33.988 31.1053 33.5 31.1053ZM40.7253 30.4146C40.692 30.6559 40.5627 30.8733 40.3667 31.0199C39.0933 31.9813 38.152 29.1786 36.9093 27.9919L36.5893 28.3106V30.3106C36.5893 30.8173 36.176 31.2279 35.6653 31.2279C35.156 31.2279 34.7427 30.8173 34.7427 30.3106V24.0373C34.7427 23.5319 35.156 23.1199 35.6653 23.1199C36.1747 23.1199 36.588 23.5306 36.588 24.0373V26.0079C38.2907 24.7306 39.2347 22.4479 40.3107 23.5159C41.3667 24.5639 39.18 25.4813 38.2747 26.7453C40.4133 29.6946 40.82 29.7679 40.7253 30.4146Z" fill="#3B2426"/>
</g>
<defs>
<clipPath id="clip0">
<rect width="32" height="32" fill="white" transform="translate(13 13)"/>
</clipPath>
</defs>
</svg>
