<?xml version="1.0" encoding="utf-8"?>
<!-- Generator: Adobe Illustrator 16.0.0, SVG Export Plug-In . SVG Version: 6.00 Build 0)  -->
<!DOCTYPE svg PUBLIC "-//W3C//DTD SVG 1.1//EN" "http://www.w3.org/Graphics/SVG/1.1/DTD/svg11.dtd">
<svg version="1.1" id="Layer_1" xmlns="http://www.w3.org/2000/svg" xmlns:xlink="http://www.w3.org/1999/xlink" x="0px" y="0px"
	 width="40px" height="40px" viewBox="0 0 40 40" enable-background="new 0 0 40 40" xml:space="preserve">
<path fill="#AAAAAA" d="M20,40C8.972,40,0,31.028,0,20S8.972,0,20,0s20,8.972,20,20S31.028,40,20,40z M20,0.494
	C9.244,0.494,0.494,9.244,0.494,20S9.244,39.506,20,39.506S39.506,30.756,39.506,20S30.756,0.494,20,0.494z"/>
<path fill="#AAAAAA" d="M21,25.281c-1.526,0-2.757-1.209-2.757-2.702c0-1.501,1.231-2.71,2.757-2.71c1.523,0,2.76,1.209,2.76,2.71
	C23.76,24.072,22.523,25.281,21,25.281z M18.289,18.686V11H15v17.555h3.337V27.18c0,0,1.025,1.375,3.612,1.375
	c0-0.055,5.051,0,5.051-6.121c0,0,0-5.415-5.051-5.415C21.949,17.019,20.031,17.019,18.289,18.686z"/>
</svg>
