<?xml version="1.0" encoding="utf-8"?>
<!-- Generator: Adobe Illustrator 16.0.0, SVG Export Plug-In . SVG Version: 6.00 Build 0)  -->
<!DOCTYPE svg PUBLIC "-//W3C//DTD SVG 1.1//EN" "http://www.w3.org/Graphics/SVG/1.1/DTD/svg11.dtd">
<svg version="1.1" id="Layer_1" xmlns="http://www.w3.org/2000/svg" xmlns:xlink="http://www.w3.org/1999/xlink" x="0px" y="0px"
	 width="40px" height="40px" viewBox="0 0 40 40" enable-background="new 0 0 40 40" xml:space="preserve">
<path fill="#AAAAAA" d="M20,40C8.972,40,0,31.028,0,20S8.972,0,20,0s20,8.972,20,20S31.028,40,20,40z M20,0.494
	C9.244,0.494,0.494,9.244,0.494,20S9.244,39.506,20,39.506S39.506,30.756,39.506,20S30.756,0.494,20,0.494z"/>
<path fill="#AAAAAA" d="M20.842,29v-8.211h2.652l0.396-3.2h-3.05v-2.042c0-0.926,0.247-1.558,1.525-1.558L24,13.988v-2.862
	C23.717,11.088,22.749,11,21.622,11c-2.352,0-3.962,1.491-3.962,4.23v2.359H15v3.2h2.66V29H20.842z"/>
</svg>
