<svg width="32" height="32" viewBox="0 0 32 32" fill="none" xmlns="http://www.w3.org/2000/svg">
<path d="M15.0998 17.5667H17.0998V9.13332H15.0998V17.5667ZM15.9998 22.6667C16.3109 22.6667 16.5721 22.5611 16.7832 22.35C16.9943 22.1389 17.0998 21.8778 17.0998 21.5667C17.0998 21.2555 16.9943 20.9944 16.7832 20.7833C16.5721 20.5722 16.3109 20.4667 15.9998 20.4667C15.6887 20.4667 15.4276 20.5722 15.2165 20.7833C15.0054 20.9944 14.8998 21.2555 14.8998 21.5667C14.8998 21.8778 15.0054 22.1389 15.2165 22.35C15.4276 22.5611 15.6887 22.6667 15.9998 22.6667ZM15.9998 29.3333C14.1109 29.3333 12.3554 28.9944 10.7332 28.3167C9.11095 27.6389 7.69984 26.7 6.49984 25.5C5.29984 24.3 4.36095 22.8889 3.68317 21.2667C3.00539 19.6444 2.6665 17.8889 2.6665 16C2.6665 14.1333 3.00539 12.3889 3.68317 10.7667C4.36095 9.14443 5.29984 7.73332 6.49984 6.53332C7.69984 5.33332 9.11095 4.38888 10.7332 3.69999C12.3554 3.0111 14.1109 2.66666 15.9998 2.66666C17.8665 2.66666 19.6109 3.0111 21.2332 3.69999C22.8554 4.38888 24.2665 5.33332 25.4665 6.53332C26.6665 7.73332 27.6109 9.14443 28.2998 10.7667C28.9887 12.3889 29.3332 14.1333 29.3332 16C29.3332 17.8889 28.9887 19.6444 28.2998 21.2667C27.6109 22.8889 26.6665 24.3 25.4665 25.5C24.2665 26.7 22.8554 27.6389 21.2332 28.3167C19.6109 28.9944 17.8665 29.3333 15.9998 29.3333ZM15.9998 27.3333C19.1109 27.3333 21.7776 26.2222 23.9998 24C26.2221 21.7778 27.3332 19.1111 27.3332 16C27.3332 12.8889 26.2221 10.2222 23.9998 7.99999C21.7776 5.77777 19.1109 4.66666 15.9998 4.66666C12.8887 4.66666 10.2221 5.77777 7.99984 7.99999C5.77761 10.2222 4.6665 12.8889 4.6665 16C4.6665 19.1111 5.77761 21.7778 7.99984 24C10.2221 26.2222 12.8887 27.3333 15.9998 27.3333Z" fill="#B4B8BD"/>
</svg>
