<?xml version="1.0" encoding="utf-8"?>
<!-- Generator: Adobe Illustrator 16.0.0, SVG Export Plug-In . SVG Version: 6.00 Build 0)  -->
<!DOCTYPE svg PUBLIC "-//W3C//DTD SVG 1.1//EN" "http://www.w3.org/Graphics/SVG/1.1/DTD/svg11.dtd">
<svg version="1.1" id="Layer_1" xmlns="http://www.w3.org/2000/svg" xmlns:xlink="http://www.w3.org/1999/xlink" x="0px" y="0px"
	 width="24px" height="24px" viewBox="0 0 24 24" enable-background="new 0 0 24 24" xml:space="preserve">
<g id="_ioncs_x2F__arrow_x5F_left">
	<path fill="#333333" d="M10,18.75c-0.215,0-0.428-0.092-0.577-0.27l-4.992-5.99c-0.044-0.052-0.081-0.108-0.109-0.168
		c-0.014-0.029-0.026-0.06-0.036-0.09l0,0c0-0.001,0-0.002-0.001-0.002c0,0-0.001,0,0-0.002l-0.001-0.002c0-0.001,0-0.001,0-0.002
		c0,0,0,0,0,0c-0.006-0.02-0.012-0.04-0.016-0.061c0,0,0-0.001,0-0.002c0,0,0,0,0-0.001c0,0,0-0.001,0-0.002c0,0,0,0,0-0.002l0,0
		C4.255,12.103,4.25,12.052,4.25,12v0v0c0-0.051,0.005-0.103,0.016-0.153l0,0c0-0.002,0-0.002,0-0.002c0-0.001,0-0.002,0-0.002
		c0,0,0-0.001,0-0.001c0-0.001,0-0.002,0-0.002c0.004-0.021,0.01-0.041,0.016-0.061c0,0,0,0,0,0c0-0.001,0.001-0.001,0-0.002
		l0.001-0.002c0-0.001,0.001-0.001,0-0.002c0,0-0.001,0.001,0.001-0.002l0,0c0.01-0.031,0.022-0.061,0.036-0.09
		c0.028-0.06,0.065-0.116,0.109-0.168l4.992-5.99c0.266-0.319,0.738-0.361,1.056-0.096c0.318,0.265,0.361,0.738,0.096,1.056
		l-3.975,4.77H19c0.414,0,0.75,0.336,0.75,0.75s-0.336,0.75-0.75,0.75H6.601l3.975,4.77c0.265,0.318,0.222,0.791-0.096,1.057
		C10.34,18.693,10.169,18.75,10,18.75z"/>
</g>
</svg>
