<svg width="34" height="35" viewBox="0 0 34 35" xmlns="http://www.w3.org/2000/svg" xmlns:xlink="http://www.w3.org/1999/xlink">
    <defs>
        <filter x="-1.5%" y="-1.5%" width="102.9%" height="105.9%" filterUnits="objectBoundingBox" id="a">
            <feOffset dy="1" in="SourceAlpha" result="shadowOffsetOuter1"/>
            <feColorMatrix values="0 0 0 0 0.91372549 0 0 0 0 0.91372549 0 0 0 0 0.91372549 0 0 0 1 0" in="shadowOffsetOuter1"/>
        </filter>
        <circle id="b" cx="17" cy="17" r="17"/>
    </defs>
    <g fill="none" fill-rule="evenodd">
        <g>
            <use fill="#000" filter="url(#a)" xlink:href="#b"/>
            <use fill="#FFF" xlink:href="#b"/>
        </g>
        <path d="m22.737 11.64-.56-1.977a.826.826 0 0 0-.81-.663h-7.734a.827.827 0 0 0-.81.663l-.56 1.977a.826.826 0 0 1-.81.664h-1.8c-.913 0-1.653.74-1.653 1.653v9.086c0 .912.74 1.653 1.652 1.653h15.696c.913 0 1.652-.74 1.652-1.653v-9.086c0-.913-.74-1.653-1.652-1.653h-1.802a.827.827 0 0 1-.81-.664z" stroke="#000" stroke-width="1.5"/>
        <path d="M21.63 18.087a3.718 3.718 0 1 1-7.435 0 3.718 3.718 0 0 1 7.435 0z" stroke="#000" stroke-width="1.5"/>
    </g>
</svg>
