<svg width="22" height="22" xmlns="http://www.w3.org/2000/svg">
    <g fill="none" fill-rule="evenodd">
        <rect fill="#EDF0FF" width="22" height="22" rx="3"/>
        <path d="M6.104 17.533h11.001c.937 0 1.537-.431 1.537-1.317v-5.54c0-.63-.523-1.143-1.167-1.143h-.885" stroke="#010101" stroke-width="1.2" stroke-linecap="round" stroke-linejoin="round"/>
        <path d="M7.559 10.572v5.095c0 .687-.05 1.866-1.455 1.866-1.406 0-1.667-1.18-1.667-1.866V6.333c0-1.572.628-1.866 1.815-1.866h1.604c.956 0 1.493.487 1.612 1.463a.586.586 0 0 0 .546.403h5.507c.644 0 1.166.558 1.166 1.245v1.955H8.744c-.644 0-1.184.352-1.184 1.039z" stroke="#010101" stroke-width="1.2" stroke-linecap="round" stroke-linejoin="round"/>
    </g>
</svg>
