<svg width="40" height="40" xmlns="http://www.w3.org/2000/svg">
    <g fill="#454F63" fill-rule="nonzero">
        <path d="M26.447 12.895h-.79v-1.316h-1.315v1.316h-8.684v-1.316h-1.316v1.316h-.79a1.976 1.976 0 0 0-1.973 1.973v11.58c0 1.088.885 1.973 1.974 1.973h12.894a1.976 1.976 0 0 0 1.974-1.974V14.868a1.976 1.976 0 0 0-1.974-1.973zm.658 13.552a.659.659 0 0 1-.658.658H13.553a.659.659 0 0 1-.658-.658v-8.684h14.21v8.684zm0-10h-14.21v-1.579c0-.362.295-.657.658-.657h.79v1.315h1.315v-1.315h8.684v1.315h1.316v-1.315h.79c.362 0 .657.295.657.657v1.58z"/>
        <path d="M14.079 19.145h1.316v1.316h-1.316zM16.711 19.145h1.316v1.316h-1.316zM19.342 19.145h1.316v1.316h-1.316zM21.974 19.145h1.316v1.316h-1.316zM24.605 19.145h1.316v1.316h-1.316zM14.079 21.776h1.316v1.316h-1.316zM16.711 21.776h1.316v1.316h-1.316zM19.342 21.776h1.316v1.316h-1.316zM21.974 21.776h1.316v1.316h-1.316zM14.079 24.408h1.316v1.316h-1.316zM16.711 24.408h1.316v1.316h-1.316zM19.342 24.408h1.316v1.316h-1.316zM21.974 24.408h1.316v1.316h-1.316zM24.605 21.776h1.316v1.316h-1.316z"/>
    </g>
</svg>
