<svg width="34" height="34" xmlns="http://www.w3.org/2000/svg">
    <defs>
        <linearGradient x1="50%" y1="0%" x2="50%" y2="100%" id="a">
            <stop stop-color="#F87E7E" offset="0%"/>
            <stop stop-color="#EE4848" offset="100%"/>
        </linearGradient>
    </defs>
    <g fill="none" fill-rule="evenodd">
        <path fill="url(#a)" d="m17 32.291-3.317 1.382-2.535-2.546-3.593.008-1.367-3.323-3.323-1.367.008-3.593-2.546-2.535L1.709 17 .327 13.683l2.546-2.535-.008-3.593 3.323-1.367 1.367-3.323 3.593.008L13.683.327 17 1.709 20.317.327l2.535 2.546 3.593-.008 1.367 3.323 3.323 1.367-.008 3.593 2.546 2.535L32.291 17l1.382 3.317-2.546 2.535.008 3.593-3.323 1.367-1.367 3.323-3.593-.008-2.535 2.546z"/>
        <text font-family="AppleSDGothicNeo-Bold, Apple SD Gothic Neo" font-size="11" font-weight="bold" letter-spacing="-.344" fill="#FFF">
                            <tspan x="8" y="21">중요</tspan>
                        </text>
    </g>
</svg>
