<svg width="360" height="211" xmlns="http://www.w3.org/2000/svg" xmlns:xlink="http://www.w3.org/1999/xlink">
    <defs>
        <path id="a" d="M0 0h151.862v184.088H0z"/>
        <path id="c" d="M0 0h147v118H0z"/>
        <path id="e" d="M.385 0h198.814v120.778H.385z"/>
    </defs>
    <g fill="none" fill-rule="evenodd">
        <path fill="#FFBF00" d="M0 0h360v256H0z"/>
        <g opacity=".2">
            <g transform="translate(208.032 29.353)">
                <mask id="b" fill="#fff">
                    <use xlink:href="#a"/>
                </mask>
                <path d="m210.136 53.725 13.582-19.47L170.746 0l-12.724 18.126c-15.125 21.58-43.045 54.184-110.554 88.021-5.384 2.698-19.386 9.37-25.182 11.884L0 127.689l28.356 56.399 19.946-8.688c4.912-2.135 16.665-7.513 27.302-12.844 61.47-30.805 104.217-65.386 134.532-108.83" fill="#FEFEFE" mask="url(#b)"/>
            </g>
            <g transform="translate(0 109)">
                <mask id="d" fill="#fff">
                    <use xlink:href="#c"/>
                </mask>
                <path d="M83.654 17.847c-15.941 21.152-45.068 52.9-113.655 84.256-5.468 2.5-19.676 8.65-25.554 10.948l-22.579 8.825 25.919 58.094 20.208-7.941c4.98-1.955 16.903-6.895 27.702-11.834 62.45-28.546 106.42-61.677 138.374-104.266l14.32-19.087L97.059.082 83.653 17.848z" fill="#FEFEFE" mask="url(#d)"/>
            </g>
            <g transform="translate(57 -29)">
                <mask id="f" fill="#fff">
                    <use xlink:href="#e"/>
                </mask>
                <path d="m170.25 121.405 28.95-56.113-19.444-10.82C156.608 41.61 121.123 17.14 80.394-46.56c-3.248-5.083-11.35-18.327-14.454-23.836L54.008-91.58.385-57.705l10.721 18.952c2.636 4.67 9.213 15.816 15.629 25.845 37.08 58.004 76.05 97.017 122.635 122.771l20.88 11.542z" fill="#FEFEFE" mask="url(#f)"/>
            </g>
        </g>
    </g>
</svg>
