<svg width="24" height="24" viewBox="0 0 24 24" fill="none" xmlns="http://www.w3.org/2000/svg">
<path fill-rule="evenodd" clip-rule="evenodd" d="M20.121 8.62486C20.1211 8.80213 20.0861 8.97766 20.0182 9.14138C19.9502 9.3051 19.8506 9.45377 19.725 9.57886L12.975 16.3289C12.8496 16.4543 12.7008 16.5537 12.5369 16.6216C12.3731 16.6895 12.1975 16.7244 12.0202 16.7244C11.8429 16.7244 11.6673 16.6895 11.5035 16.6216C11.3397 16.5537 11.1908 16.4543 11.0655 16.3289L4.31547 9.57886C4.18575 9.45448 4.08216 9.30546 4.01079 9.14052C3.93942 8.97558 3.90171 8.79805 3.89985 8.61834C3.898 8.43863 3.93204 8.26036 3.99999 8.09398C4.06794 7.9276 4.16843 7.77647 4.29556 7.64944C4.42269 7.52241 4.57391 7.42204 4.74034 7.35422C4.90677 7.2864 5.08506 7.25249 5.26477 7.25449C5.44448 7.25648 5.62198 7.29434 5.78686 7.36584C5.95175 7.43734 6.10069 7.54104 6.22497 7.67086L12.021 13.4654L17.8155 7.67086C18.0042 7.48179 18.2448 7.35295 18.5067 7.30066C18.7687 7.24838 19.0403 7.27499 19.2871 7.37713C19.534 7.47927 19.745 7.65235 19.8934 7.87446C20.0418 8.09657 20.121 8.35772 20.121 8.62486Z" fill="#8B95A1"/>
</svg>
