<?xml version="1.0" encoding="utf-8"?>
<!-- Generator: Adobe Illustrator 16.0.0, SVG Export Plug-In . SVG Version: 6.00 Build 0)  -->
<!DOCTYPE svg PUBLIC "-//W3C//DTD SVG 1.1//EN" "http://www.w3.org/Graphics/SVG/1.1/DTD/svg11.dtd">
<svg version="1.1" id="Layer_1" xmlns="http://www.w3.org/2000/svg" xmlns:xlink="http://www.w3.org/1999/xlink" x="0px" y="0px"
	 width="32px" height="32px" viewBox="0 0 32 32" enable-background="new 0 0 32 32" xml:space="preserve">
<path fill="#FFFFFF" d="M26.312,15.79c0-0.001,0-0.002,0-0.002c0-0.001,0-0.001-0.001-0.002v0c0-0.001,0-0.002,0-0.002v0
	c-0.007-0.029-0.015-0.057-0.023-0.085c0-0.001,0-0.001-0.001-0.002v0c0-0.003-0.001-0.003-0.001-0.003
	c-0.001-0.006-0.001-0.003-0.001-0.003v0c-0.013-0.04-0.028-0.078-0.047-0.116c-0.037-0.08-0.087-0.156-0.146-0.225L19.435,7.36
	c-0.354-0.424-0.982-0.482-1.409-0.128c-0.424,0.354-0.481,0.984-0.128,1.408L23.198,15H6.666c-0.552,0-1,0.448-1,1
	c0,0.553,0.448,1,1,1h16.532l-5.301,6.359c-0.354,0.425-0.296,1.055,0.128,1.409C18.213,24.924,18.439,25,18.665,25
	c0.287,0,0.571-0.122,0.77-0.359l6.656-7.987c0.06-0.068,0.109-0.145,0.146-0.225c0.019-0.038,0.034-0.077,0.047-0.116v0
	c0-0.001,0.001,0,0.001-0.003c0.001,0,0.001-0.001,0.001-0.003v0c0.001-0.001,0.001-0.001,0.001-0.002
	c0.009-0.028,0.017-0.056,0.023-0.085v0c0,0,0-0.001,0-0.002v0c0.001-0.001,0.001-0.001,0.001-0.002c0,0,0-0.001,0-0.002
	c0.015-0.069,0.022-0.139,0.022-0.209c0-0.001,0-0.001,0-0.002C26.334,15.929,26.326,15.859,26.312,15.79z"/>
</svg>
