<?xml version="1.0" encoding="utf-8"?>
<!-- Generator: Adobe Illustrator 16.0.0, SVG Export Plug-In . SVG Version: 6.00 Build 0)  -->
<!DOCTYPE svg PUBLIC "-//W3C//DTD SVG 1.1//EN" "http://www.w3.org/Graphics/SVG/1.1/DTD/svg11.dtd">
<svg version="1.1" id="Layer_1" xmlns="http://www.w3.org/2000/svg" xmlns:xlink="http://www.w3.org/1999/xlink" x="0px" y="0px"
	 width="24px" height="24px" viewBox="0 0 24 24" enable-background="new 0 0 24 24" xml:space="preserve">
<path fill="#333333" d="M13.061,12l4.419-4.419c0.293-0.293,0.293-0.768,0-1.061s-0.768-0.293-1.061,0L12,10.939L7.581,6.52
	c-0.293-0.293-0.768-0.293-1.061,0s-0.293,0.768,0,1.061L10.94,12l-4.419,4.419c-0.293,0.293-0.293,0.768,0,1.061
	c0.146,0.146,0.338,0.22,0.53,0.22s0.384-0.073,0.53-0.22L12,13.061l4.418,4.419c0.146,0.146,0.338,0.22,0.53,0.22
	s0.384-0.073,0.53-0.22c0.293-0.293,0.293-0.768,0-1.061L13.061,12z"/>
</svg>
