<?xml version="1.0" encoding="utf-8"?>
<!-- Generator: Adobe Illustrator 16.0.0, SVG Export Plug-In . SVG Version: 6.00 Build 0)  -->
<!DOCTYPE svg PUBLIC "-//W3C//DTD SVG 1.1//EN" "http://www.w3.org/Graphics/SVG/1.1/DTD/svg11.dtd">
<svg version="1.1" id="Layer_1" xmlns="http://www.w3.org/2000/svg" xmlns:xlink="http://www.w3.org/1999/xlink" x="0px" y="0px"
	 width="24px" height="24px" viewBox="0 0 24 24" enable-background="new 0 0 24 24" xml:space="preserve">
<path fill="#333333" d="M19.746,4.333c0.045-0.412-0.252-0.783-0.663-0.828c-0.412-0.046-0.782,0.25-0.829,0.662l-0.268,2.407
	C16.484,4.99,14.357,4,12,4c-4.556,0-8.25,3.694-8.25,8.25c0,4.557,3.694,8.25,8.25,8.25c4.557,0,8.25-3.693,8.25-8.25
	c0-0.414-0.336-0.75-0.75-0.75s-0.75,0.336-0.75,0.75c0,3.729-3.021,6.75-6.75,6.75c-3.728,0-6.75-3.021-6.75-6.75
	C5.25,8.522,8.272,5.5,12,5.5c2.117,0,4.006,0.974,5.244,2.5H14c-0.414,0-0.75,0.336-0.75,0.75S13.586,9.5,14,9.5h4.5
	c0.383,0,0.703-0.287,0.746-0.667L19.746,4.333z"/>
</svg>
