<?xml version="1.0" encoding="utf-8"?>
<!-- Generator: Adobe Illustrator 16.0.0, SVG Export Plug-In . SVG Version: 6.00 Build 0)  -->
<!DOCTYPE svg PUBLIC "-//W3C//DTD SVG 1.1//EN" "http://www.w3.org/Graphics/SVG/1.1/DTD/svg11.dtd">
<svg version="1.1" id="Layer_1" xmlns="http://www.w3.org/2000/svg" xmlns:xlink="http://www.w3.org/1999/xlink" x="0px" y="0px"
	 width="24px" height="24px" viewBox="0 0 24 24" enable-background="new 0 0 24 24" xml:space="preserve">
<g id="_ioncs_x2F__arrow_x5F_left">
	<path fill="#FFFFFF" d="M13.999,5.253c0.215,0,0.429,0.092,0.577,0.27l4.99,5.99c0.045,0.052,0.082,0.108,0.108,0.168
		c0.017,0.029,0.026,0.06,0.036,0.09l0,0c0.001,0.001,0.001,0.002,0.001,0.002s0.001,0,0.001,0.002l0.001,0.002
		c0,0.001,0,0.001,0,0.002l0,0c0.009,0.02,0.013,0.04,0.019,0.061c0,0,0,0.001,0,0.002c0,0,0,0,0,0.001c0,0,0,0.001,0,0.002
		c0,0,0.002,0,0.002,0.002l0,0c0.01,0.05,0.016,0.102,0.016,0.153l0,0l0,0c0,0.051-0.006,0.103-0.016,0.153l0,0
		c0,0.002-0.002,0.002-0.002,0.002c0,0.001,0,0.002,0,0.002v0.001c0,0.001,0,0.002,0,0.002c-0.006,0.021-0.01,0.041-0.019,0.061l0,0
		c0.001,0.001-0.001,0.001,0,0.002l-0.001,0.002c0,0.001-0.001,0.001-0.001,0.002c0,0,0.001-0.001-0.001,0.002l0,0
		c-0.01,0.031-0.021,0.061-0.036,0.09c-0.026,0.06-0.063,0.116-0.108,0.168l-4.99,5.99c-0.266,0.317-0.738,0.36-1.057,0.098
		c-0.318-0.266-0.361-0.738-0.098-1.057l3.977-4.771H5c-0.414,0-0.75-0.335-0.75-0.75S4.586,11.253,5,11.253h12.398l-3.977-4.77
		C13.157,6.166,13.2,5.692,13.52,5.426C13.66,5.311,13.83,5.253,13.999,5.253z"/>
</g>
</svg>
