<?xml version="1.0" encoding="utf-8"?>
<!-- Generator: Adobe Illustrator 16.0.0, SVG Export Plug-In . SVG Version: 6.00 Build 0)  -->
<!DOCTYPE svg PUBLIC "-//W3C//DTD SVG 1.1//EN" "http://www.w3.org/Graphics/SVG/1.1/DTD/svg11.dtd">
<svg version="1.1" id="Layer_1" xmlns="http://www.w3.org/2000/svg" xmlns:xlink="http://www.w3.org/1999/xlink" x="0px" y="0px"
	 width="24px" height="24px" viewBox="0 0 24 24" enable-background="new 0 0 24 24" xml:space="preserve">
<path fill="#333333" d="M19.309,12.998l-4.5-5c-0.279-0.308-0.752-0.333-1.061-0.056s-0.333,0.751-0.057,1.06l3.375,3.749H7.25
	C6.561,12.75,6,12.188,6,11.5V6c0-0.414-0.336-0.75-0.75-0.75S4.5,5.585,4.5,6v5.5c0,1.518,1.233,2.75,2.75,2.75h9.689l-3.221,3.219
	c-0.293,0.295-0.293,0.77,0,1.063c0.146,0.145,0.338,0.219,0.53,0.219s0.384-0.072,0.53-0.219l4.5-4.5
	C19.563,13.748,19.574,13.295,19.309,12.998z"/>
</svg>
