<svg width="34" height="41" viewBox="0 0 34 41" fill="none" xmlns="http://www.w3.org/2000/svg">
<ellipse cx="17" cy="8.08861" rx="7" ry="7.08861" stroke="#333333" stroke-width="2" stroke-linecap="round" stroke-linejoin="round"/>
<path d="M7.5 19.7342C8.83333 18.384 12.5 15.6836 16.5 15.6836C20.5 15.6836 24.5 18.384 26 19.7342" stroke="#333333" stroke-width="2" stroke-linecap="round" stroke-linejoin="round"/>
<path fill-rule="evenodd" clip-rule="evenodd" d="M30.5 19.2278C30.5 18.921 30.3592 18.6312 30.118 18.4416C29.8768 18.252 29.5619 18.1836 29.2638 18.2561L17 21.2367L4.73616 18.2561C4.44331 18.1849 4.13398 18.2496 3.8942 18.4322C3.65442 18.6147 3.50977 18.8957 3.50048 19.1969L3.00048 35.3995C2.98702 35.8354 3.25763 36.2298 3.6692 36.374L16.6692 40.931C16.8874 41.0075 17.1253 41.006 17.3425 40.9268L29.8425 36.3698C30.2373 36.2259 30.5 35.8505 30.5 35.4303V19.2278ZM5.02212 34.729L5.46151 20.4906L16.0244 23.0578C16.0084 23.1288 16 23.2026 16 23.2784V38.5771L5.02212 34.729ZM18 38.5583L28.5 34.7305V20.4999L17.9756 23.0578C17.9916 23.1288 18 23.2026 18 23.2784V38.5583Z" fill="#333333"/>
<path d="M3.5 24.2911C2.66667 24.4599 1 25.3038 1 27.3291C1 29.3544 2.66667 30.1983 3.5 30.3671" stroke="#333333" stroke-width="2" stroke-linecap="round" stroke-linejoin="round"/>
<path d="M30 24.2911C30.8333 24.4599 32.5 25.3038 32.5 27.3291C32.5 29.3544 30.8333 30.1983 30 30.3671" stroke="#333333" stroke-width="2" stroke-linecap="round" stroke-linejoin="round"/>
</svg>
