<svg width="57" height="42" viewBox="0 0 57 42" fill="none" xmlns="http://www.w3.org/2000/svg">
<path d="M0 41.2312C0.297688 41.2437 0.597689 41.2499 0.900002 41.2499C3.43334 41.2499 5.8 40.7999 8 39.8999C10.2333 38.9999 12.1667 37.6832 13.8 35.9499C15.4667 34.2166 16.7667 32.0832 17.7 29.5499C18.6667 26.9832 19.15 24.0332 19.15 20.6999C19.15 17.3666 18.6667 14.4166 17.7 11.8499C16.7667 9.28323 15.4667 7.13324 13.8 5.3999C12.1667 3.66657 10.25 2.36657 8.05 1.4999C5.85 0.599901 3.5 0.149902 1 0.149902C0.664262 0.149902 0.330929 0.157718 0 0.173348V8.06733C0.3 8.02238 0.600001 7.9999 0.900002 7.9999C1.93333 7.9999 2.96667 8.26657 4 8.7999C5.06667 9.33324 6.01667 10.1332 6.85 11.1999C7.68333 12.2332 8.35 13.5499 8.85 15.1499C9.38334 16.7499 9.65 18.5999 9.65 20.6999C9.65 22.8666 9.4 24.7499 8.9 26.3499C8.43334 27.9166 7.8 29.2332 7 30.2999C6.2 31.3332 5.28333 32.1166 4.25 32.6499C3.21667 33.1499 2.13333 33.3999 1 33.3999C0.663732 33.3999 0.330399 33.3764 0 33.3295V41.2312Z" fill="#CFB699"/>
<path fill-rule="evenodd" clip-rule="evenodd" d="M22.1426 33.2499H41.4426V40.9999H50.7426V33.2499H56.3426V25.7999H50.7426V0.499901H42.2426L22.1426 26.1999V33.2499ZM41.4426 12.8999V25.7999H31.8426L41.4426 12.8999Z" fill="#CFB699"/>
</svg>
