<svg width="52" height="42" viewBox="0 0 52 42" fill="none" xmlns="http://www.w3.org/2000/svg">
<path d="M0 41.2311C0.297688 41.2436 0.597689 41.2498 0.900002 41.2498C3.43334 41.2498 5.8 40.7998 8 39.8998C10.2333 38.9998 12.1667 37.6831 13.8 35.9498C15.4667 34.2165 16.7667 32.0831 17.7 29.5498C18.6667 26.9831 19.15 24.0331 19.15 20.6998C19.15 17.3665 18.6667 14.4165 17.7 11.8498C16.7667 9.28314 15.4667 7.13314 13.8 5.39981C12.1667 3.66647 10.25 2.36647 8.05 1.4998C5.85 0.599806 3.5 0.149807 1 0.149807C0.664262 0.149807 0.330929 0.157622 0 0.173253V8.06724C0.3 8.02228 0.600001 7.99981 0.900002 7.99981C1.93333 7.99981 2.96667 8.26647 4 8.79981C5.06667 9.33314 6.01667 10.1331 6.85 11.1998C7.68333 12.2331 8.35 13.5498 8.85 15.1498C9.38334 16.7498 9.65 18.5998 9.65 20.6998C9.65 22.8665 9.4 24.7498 8.9 26.3498C8.43334 27.9165 7.8 29.2331 7 30.2998C6.2 31.3331 5.28333 32.1165 4.25 32.6498C3.21667 33.1498 2.13333 33.3998 1 33.3998C0.663732 33.3998 0.330399 33.3763 0 33.3294V41.2311Z" fill="#CFB699"/>
<path d="M36.9426 20.3998L23.5926 33.1498V40.4998H51.2426V32.9998H34.6426L42.5926 25.8998C43.6926 25.0331 44.7259 24.1165 45.6926 23.1498C46.6926 22.1498 47.5592 21.0665 48.2926 19.8998C49.0259 18.6998 49.5926 17.4165 49.9926 16.0498C50.3926 14.6831 50.5592 13.1665 50.4926 11.4998C50.3926 9.96647 50.0092 8.51647 49.3426 7.14981C48.7092 5.74981 47.7759 4.53314 46.5426 3.49981C45.3426 2.43314 43.8259 1.5998 41.9926 0.999804C40.1926 0.366471 38.0926 0.0498047 35.6926 0.0498047C34.5259 0.0498047 33.2926 0.199805 31.9926 0.499805C30.7259 0.799806 29.4759 1.26647 28.2426 1.89981C27.0426 2.49981 25.8926 3.28314 24.7926 4.2498C23.7259 5.18314 22.8092 6.29981 22.0426 7.59981L27.7426 12.6998C28.8092 11.1998 29.9759 10.0165 31.2426 9.14981C32.5092 8.28314 33.9592 7.81647 35.5926 7.74981C36.4926 7.71647 37.2926 7.81647 37.9926 8.04981C38.6926 8.28314 39.2926 8.61647 39.7926 9.04981C40.2926 9.48314 40.6759 9.96647 40.9426 10.4998C41.2426 11.0331 41.4259 11.5831 41.4926 12.1498C41.5926 13.0165 41.5259 13.8165 41.2926 14.5498C41.0926 15.2498 40.7759 15.9331 40.3426 16.5998C39.9426 17.2665 39.4426 17.9165 38.8426 18.5498C38.2426 19.1498 37.6092 19.7665 36.9426 20.3998Z" fill="#CFB699"/>
</svg>
