<svg xmlns="http://www.w3.org/2000/svg" xmlns:xlink="http://www.w3.org/1999/xlink" width="162" height="91" viewBox="0 0 162 91">
    <defs>
        <filter id="6ysfpl1lrb" width="102.5%" height="104.5%" x="-.6%" y="-1.1%" filterUnits="objectBoundingBox">
            <feOffset dx="2" dy="2" in="SourceAlpha" result="shadowOffsetOuter1"/>
            <feColorMatrix in="shadowOffsetOuter1" values="0 0 0 0 0.894540096 0 0 0 0 0.894540096 0 0 0 0 0.894540096 0 0 0 0.272964584 0"/>
        </filter>
        <filter id="wzkqe5p57c" color-interpolation-filters="auto">
            <feColorMatrix in="SourceGraphic" values="0 0 0 0 1.000000 0 0 0 0 1.000000 0 0 0 0 1.000000 0 0 0 1.000000 0"/>
        </filter>
        <path id="qlqkbfmqwa" d="M158.702 0c.716 0 1.297.58 1.297 1.297l.001 38.9c-.177-.025-.358-.038-.541-.038-2.09 0-3.784 1.7-3.784 3.798s1.694 3.8 3.784 3.8c.183 0 .364-.014.541-.04v39.986c0 .716-.582 1.297-1.298 1.297H1.297C.581 89 0 88.42 0 87.703V47.718c1.834-.264 3.243-1.847 3.243-3.76 0-1.914-1.409-3.497-3.242-3.76L0 1.297C0 .58.58 0 1.297 0h157.405z"/>
    </defs>
    <g fill="none" fill-rule="evenodd">
        <g>
            <g transform="translate(-397.000000, -857.000000) translate(397.000000, 857.000000)">
                <mask id="b39q53g1gd" fill="#fff">
                    <use xlink:href="#qlqkbfmqwa"/>
                </mask>
                <g>
                    <use fill="#000" filter="url(#6ysfpl1lrb)" xlink:href="#qlqkbfmqwa"/>
                    <use fill="#0A1B3D" xlink:href="#qlqkbfmqwa"/>
                </g>
                <g filter="url(#wzkqe5p57c)" opacity=".08">
                    <g mask="url(#b39q53g1gd)">
                        <path fill="#FFF" d="M160 36.735s0-.705-.184-.718l-15.092-6.845c-.251-.114-.54-.112-.792.004l-63.088 29.44c-.895.417-1.93.423-2.827.017l-13.544-6.118c-.46-.208-.462-.855 0-1.063l63.42-28.709c.37-.167.36-.688-.018-.84l-16.882-6.87c-.24-.098-.511-.093-.746.014L47.403 43.603c-.842.381-1.812.383-2.654.003L33.046 38.32c-.51-.23-.511-.94-.005-1.173L96.355 8.041c.349-.161.347-.65-.004-.808L80.594.085c-.251-.114-.537-.114-.787.001L.976 36.328c-1.306.6-1.3 2.429.008 3.021l32.401 14.636.003-.004 1.794.815 3.863 1.746v.011l14.313 6.508v-.052l25.78 11.644c.25.112.537.11.785-.003l32.783-15.156c.361-.165.772.093.772.484v26.98c0 .359-.214.686-.546.836L80.27 102.47c-.25.111-.537.108-.785-.007L46.02 87.14c-.327-.152-.534-.475-.534-.83V75.404c0-.362-.216-.69-.552-.84l-12.758-5.655c-.471-.21-1.005.13-1.005.64v25.73c0 .357.207.68.535.83l47.705 21.89c.247.115.534.117.785.005l47.05-21.145c.332-.15.546-.477.546-.836V52.93c0-.288.168-.55.43-.675l16.805-7.797c.306-.142.657.079.657.413v24.451c0 .34.188.652.49.816L158.6 76.87c.629.34 1.399-.108 1.399-.815V36.789c0-.01-.005-.017-.005-.027 0-.01.005-.019.005-.027" transform="translate(0.000000, -14.961602)"/>
                    </g>
                </g>
            </g>
        </g>
    </g>
</svg>
