<svg xmlns="http://www.w3.org/2000/svg" xmlns:xlink="http://www.w3.org/1999/xlink" width="130" height="73" viewBox="0 0 130 73">
    <defs>
        <filter id="z5k4a4p84b" width="103.1%" height="105.6%" x="-.8%" y="-1.4%" filterUnits="objectBoundingBox">
            <feOffset dx="2" dy="2" in="SourceAlpha" result="shadowOffsetOuter1"/>
            <feColorMatrix in="shadowOffsetOuter1" values="0 0 0 0 0.894540096 0 0 0 0 0.894540096 0 0 0 0 0.894540096 0 0 0 0.272964584 0"/>
        </filter>
        <path id="9z8s11fwva" d="M126.962 0c.573 0 1.037.465 1.037 1.038l.001 31.03c-.141-.02-.286-.031-.433-.031-1.672 0-3.027 1.356-3.027 3.03 0 1.674 1.355 3.03 3.027 3.03.147 0 .292-.01.433-.03v31.895c0 .573-.465 1.038-1.038 1.038H1.038C.465 71 0 70.535 0 69.962V38.067c1.467-.21 2.595-1.473 2.595-3 0-1.526-1.128-2.79-2.594-3L0 1.037C0 .466.465 0 1.038 0h125.924z"/>
    </defs>
    <g fill="none" fill-rule="evenodd">
        <g>
            <g>
                <g>
                    <g>
                        <g transform="translate(-578.000000, -717.000000) translate(397.000000, 290.000000) translate(0.000000, 322.000000) translate(45.000000, 76.000000) translate(136.000000, 29.000000)">
                            <mask id="qu9vtys88c" fill="#fff">
                                <use xlink:href="#9z8s11fwva"/>
                            </mask>
                            <g>
                                <use fill="#000" filter="url(#z5k4a4p84b)" xlink:href="#9z8s11fwva"/>
                                <use fill="#2673F0" xlink:href="#9z8s11fwva"/>
                            </g>
                            <g fill="#333334" mask="url(#qu9vtys88c)" opacity=".1">
                                <path d="M128 29.388s0-.564-.148-.574l-12.073-5.477c-.2-.09-.432-.09-.633.004L64.675 46.893c-.716.333-1.543.338-2.261.013l-10.836-4.894c-.368-.167-.37-.684 0-.85l50.736-22.968c.296-.133.289-.55-.014-.672l-13.506-5.496c-.192-.078-.409-.074-.597.012L37.922 34.883c-.673.304-1.449.306-2.123.002l-9.362-4.23c-.408-.183-.41-.752-.004-.938l50.65-23.284c.28-.129.279-.52-.002-.647L64.475.068c-.2-.09-.43-.09-.63.001L.782 29.062c-1.045.48-1.04 1.944.006 2.417l25.921 11.71.003-.005 1.435.653 3.09 1.397v.009l11.45 5.205v-.041l20.625 9.316c.2.09.43.088.628-.003l26.226-12.125c.289-.132.618.075.618.387v21.584c0 .287-.171.55-.438.67l-26.128 11.74c-.2.089-.43.087-.628-.005L36.816 69.712c-.26-.122-.427-.38-.427-.663v-8.727c0-.29-.172-.551-.44-.671l-10.207-4.525c-.377-.167-.804.105-.804.512v20.584c0 .286.165.544.428.665L63.53 94.399c.197.092.427.093.628.004l37.639-16.917c.266-.12.437-.381.437-.668V42.344c0-.23.135-.44.345-.54l13.443-6.237c.245-.114.526.062.526.33v19.56c0 .273.15.522.392.653l9.941 5.386c.503.272 1.119-.087 1.119-.652V29.43c0-.007-.004-.014-.004-.021 0-.008.004-.015.004-.022" transform="translate(0.000000, -12.068062)"/>
                            </g>
                        </g>
                    </g>
                </g>
            </g>
        </g>
    </g>
</svg>
