<svg width="16" height="20" viewBox="0 0 16 20" fill="none" xmlns="http://www.w3.org/2000/svg">
<path d="M4.09994 11.7496C3.88314 11.7496 3.69994 11.6704 3.55034 11.512C3.39994 11.3536 3.32474 11.1744 3.32474 10.9744C3.32474 10.7584 3.39994 10.5712 3.55034 10.4128C3.69994 10.2544 3.88314 10.1752 4.09994 10.1752C4.31674 10.1752 4.49994 10.25 4.64954 10.3996C4.79994 10.55 4.87514 10.7336 4.87514 10.9504C4.87514 11.1664 4.79994 11.3536 4.64954 11.512C4.49994 11.6704 4.31674 11.7496 4.09994 11.7496ZM7.99994 11.7496C7.78314 11.7496 7.59994 11.6704 7.45034 11.512C7.29994 11.3536 7.22474 11.1744 7.22474 10.9744C7.22474 10.7584 7.29994 10.5712 7.45034 10.4128C7.59994 10.2544 7.78314 10.1752 7.99994 10.1752C8.21674 10.1752 8.39994 10.25 8.54954 10.3996C8.69994 10.55 8.77514 10.7336 8.77514 10.9504C8.77514 11.1664 8.69994 11.3536 8.54954 11.512C8.39994 11.6704 8.21674 11.7496 7.99994 11.7496ZM11.8999 11.7496C11.6831 11.7496 11.4999 11.6704 11.3503 11.512C11.1999 11.3536 11.1247 11.1744 11.1247 10.9744C11.1247 10.7584 11.1999 10.5712 11.3503 10.4128C11.4999 10.2544 11.6831 10.1752 11.8999 10.1752C12.1167 10.1752 12.2999 10.25 12.4495 10.3996C12.5999 10.55 12.6751 10.7336 12.6751 10.9504C12.6751 11.1664 12.5999 11.3536 12.4495 11.512C12.2999 11.6704 12.1167 11.7496 11.8999 11.7496ZM1.69994 19.0996C1.25034 19.0996 0.871142 18.9416 0.562342 18.6256C0.254342 18.3088 0.100342 17.9336 0.100342 17.5V4.90001C0.100342 4.46641 0.254342 4.09161 0.562342 3.77561C0.871142 3.45881 1.25034 3.30041 1.69994 3.30041H3.89954V0.774414H5.22554V3.30041H10.7995V0.774414H12.1003V3.30041H14.2999C14.7495 3.30041 15.1287 3.45881 15.4375 3.77561C15.7455 4.09161 15.8995 4.46641 15.8995 4.90001V17.5C15.8995 17.9336 15.7455 18.3088 15.4375 18.6256C15.1287 18.9416 14.7495 19.0996 14.2999 19.0996H1.69994ZM1.69994 17.8H14.2999C14.3663 17.8 14.4331 17.7668 14.5003 17.7004C14.5667 17.6332 14.5999 17.5664 14.5999 17.5V9.10001H1.39994V17.5C1.39994 17.5664 1.43314 17.6332 1.49954 17.7004C1.56674 17.7668 1.63354 17.8 1.69994 17.8ZM1.39994 7.80041H14.5999V4.90001C14.5999 4.83361 14.5667 4.76681 14.5003 4.69961C14.4331 4.63321 14.3663 4.60001 14.2999 4.60001H1.69994C1.63354 4.60001 1.56674 4.63321 1.49954 4.69961C1.43314 4.76681 1.39994 4.83361 1.39994 4.90001V7.80041Z" fill="#444444"/>
</svg>
