<svg width="17" height="16" viewBox="0 0 17 16" fill="none" xmlns="http://www.w3.org/2000/svg">
<path fill-rule="evenodd" clip-rule="evenodd" d="M2.82442 7.29897C2.43725 7.29897 2.12338 7.61283 2.12338 8C2.12338 8.38717 2.43725 8.70103 2.82442 8.70103L7.73164 8.70103L7.73164 13.6083C7.73164 13.9954 8.0455 14.3093 8.43267 14.3093C8.81984 14.3093 9.1337 13.9954 9.1337 13.6083L9.1337 8.70103L14.0409 8.70103C14.4281 8.70103 14.742 8.38717 14.742 8C14.742 7.61283 14.4281 7.29897 14.0409 7.29897L9.1337 7.29897L9.1337 2.39175C9.1337 2.00458 8.81984 1.69071 8.43267 1.69071C8.0455 1.69071 7.73164 2.00458 7.73164 2.39175L7.73164 7.29897L2.82442 7.29897Z" fill="#666666"/>
</svg>
