<svg width="30" height="30" viewBox="0 0 30 30" fill="none" xmlns="http://www.w3.org/2000/svg">
<path fill-rule="evenodd" clip-rule="evenodd" d="M11.25 3.75C11.25 3.05964 10.6904 2.5 10 2.5C9.30964 2.5 8.75 3.05964 8.75 3.75V5H6.25C4.86929 5 3.75 6.11929 3.75 7.5V13.75V25C3.75 26.3807 4.86929 27.5 6.25 27.5H23.75C25.1307 27.5 26.25 26.3807 26.25 25V13.75V7.5C26.25 6.11929 25.1307 5 23.75 5H21.25V3.75C21.25 3.05964 20.6904 2.5 20 2.5C19.3096 2.5 18.75 3.05964 18.75 3.75V5H11.25V3.75ZM23.75 12.5V7.5H21.25V8.75C21.25 9.44036 20.6904 10 20 10C19.3096 10 18.75 9.44036 18.75 8.75V7.5H11.25V8.75C11.25 9.44036 10.6904 10 10 10C9.30964 10 8.75 9.44036 8.75 8.75V7.5H6.25V12.5H23.75ZM6.25 15H23.75V25H6.25V15Z" fill="#42AEA7"/>
</svg>
