<svg xmlns="http://www.w3.org/2000/svg" width="21" height="20" viewBox="0 0 21 20">
    <g fill="none" fill-rule="evenodd" stroke-linecap="round" stroke-linejoin="round">
        <g stroke="#666" stroke-width="1.5">
            <g>
                <g>
                    <g>
                        <path d="M4.725 2.367h-.008l-1.342-1.35-2.358 2.358 1.35 1.35c-.192.35-.342.725-.459 1.108H0v3.334h1.908c.117.383.459 1.108.459 1.108l-1.35 1.35 2.358 2.358 1.35-1.35c.35.192.725.342 1.108.459V15h3.334v-1.908c.383-.117.758-.267 1.108-.459l1.35 1.35 2.358-2.358-1.35-1.342v-.008.008-.008c.192-.35.342-.725.459-1.108H15V5.833h-1.908c-.117-.383-.267-.758-.459-1.108l1.35-1.35-2.358-2.358-1.342 1.35h-.008.008-.008c-.35-.191-.725-.342-1.108-.459V0H5.833v1.908c-.383.117-.758.268-1.108.459h-.008M17.448 9l.826 1.03-.968.969c.136.248.242.521.328.794H19v2.182l-1.3.078-.349.727 1.183.95-1.495 1.6-.969-.894c-.254.124-.521.223-.794.298V18h-2.483v-1.217c-.242-.074-.484-.173-.707-.291l-.863.856-1.223-.9" transform="translate(-1418 -25) translate(1419 22) translate(0 1) translate(0 3)"/>
                        <path d="M8 7.5c0 .276-.224.5-.5.5S7 7.776 7 7.5s.224-.5.5-.5.5.224.5.5z" transform="translate(-1418 -25) translate(1419 22) translate(0 1) translate(0 3)"/>
                    </g>
                </g>
            </g>
        </g>
    </g>
</svg>
