<svg xmlns="http://www.w3.org/2000/svg" width="56" height="38" viewBox="0 0 56 38">
    <defs>
        <filter id="lso5i7mx9a">
            <feColorMatrix in="SourceGraphic" values="0 0 0 0 0.000000 0 0 0 0 0.000000 0 0 0 0 0.000000 0 0 0 1.000000 0"/>
        </filter>
    </defs>
    <g fill="none" fill-rule="evenodd" stroke-linecap="round" stroke-linejoin="round">
        <g>
            <g filter="url(#lso5i7mx9a)" transform="translate(-1545 -280) translate(1303 280)">
                <g stroke="#163567" stroke-width="1.5">
                    <path d="M28.34 27.75h-9.59c-.553 0-1-.447-1-1v-15c0-.553.447-1 1-1h18c.553 0 1 .447 1 1V17M17.75 15.75L37.75 15.75M21.75 8.75L21.75 11.75M33.75 8.75L33.75 11.75" transform="translate(242)"/>
                    <path d="M40.75 24.75c0 2.762-2.238 5-5 5s-5-2.238-5-5 2.238-5 5-5 5 2.238 5 5zM35.75 21.75L35.75 24.75M37.75 26.75L35.75 24.75" transform="translate(242)"/>
                </g>
            </g>
        </g>
    </g>
</svg>
