<svg xmlns="http://www.w3.org/2000/svg" width="17" height="15" viewBox="0 0 17 15">
    <g fill="none" fill-rule="evenodd">
        <g>
            <g>
                <path stroke="#666" stroke-linecap="round" stroke-linejoin="round" d="M13.5 11.5h-9l-3 3v-11c0-1.104.896-2 2-2h10c1.104 0 2 .896 2 2v6c0 1.104-.896 2-2 2z" transform="translate(-1722 -1618) translate(1722 1618) matrix(-1 0 0 1 17 0)"/>
                <path fill="#666" d="M5.5 7c-.276 0-.5-.224-.5-.5s.224-.5.5-.5.5.224.5.5-.224.5-.5.5zM8.5 7c-.276 0-.5-.224-.5-.5s.224-.5.5-.5.5.224.5.5-.224.5-.5.5zM11.5 7c-.276 0-.5-.224-.5-.5s.224-.5.5-.5.5.224.5.5-.224.5-.5.5z" transform="translate(-1722 -1618) translate(1722 1618)"/>
            </g>
        </g>
    </g>
</svg>
