<svg xmlns="http://www.w3.org/2000/svg" width="14" height="14" viewBox="0 0 14 14">
    <defs>
        <filter id="e95yufqqca">
            <feColorMatrix in="SourceGraphic" values="0 0 0 0 1.000000 0 0 0 0 0.749020 0 0 0 0 0.000000 0 0 0 1.000000 0"/>
        </filter>
    </defs>
    <g fill="none" fill-rule="evenodd">
        <g>
            <g>
                <g>
                    <g filter="url(#e95yufqqca)" transform="translate(-325 -679) translate(312 509) translate(0 62) translate(0 92)">
                        <g>
                            <path fill="#E2E2E2" fill-rule="nonzero" d="M7.676.44l1.579 3.345c.11.233.322.394.568.431l3.53.537c.62.094.866.888.419 1.344l-2.555 2.604c-.178.182-.26.443-.217.698l.603 3.677c.106.644-.541 1.136-1.094.832L7.35 12.172c-.22-.121-.482-.121-.702 0l-3.158 1.736c-.553.304-1.2-.188-1.094-.832L3 9.4c.042-.255-.039-.516-.217-.698L.228 6.097c-.447-.456-.2-1.25.418-1.344l3.531-.537c.246-.037.458-.198.568-.43L6.325.438c.275-.585 1.074-.585 1.35 0z" transform="translate(13 16)"/>
                        </g>
                    </g>
                </g>
            </g>
        </g>
    </g>
</svg>
