<svg xmlns="http://www.w3.org/2000/svg" width="15" height="15" viewBox="0 0 15 15">
    <defs>
        <filter id="140s0hw0oa">
            <feColorMatrix in="SourceGraphic" values="0 0 0 0 0.003922 0 0 0 0 0.003922 0 0 0 0 0.003922 0 0 0 1.000000 0"/>
        </filter>
    </defs>
    <g fill="none" fill-rule="evenodd">
        <g>
            <g filter="url(#140s0hw0oa)" transform="translate(-315 -93) translate(315 88)">
                <g>
                    <path stroke="#163567" stroke-linecap="round" stroke-linejoin="round" stroke-width=".913" d="M.457 7.152L7.152.457 9.587 2.891M13.848 7.152L11.413 4.717" transform="translate(0 5)"/>
                    <path fill="#163567" d="M1.674 5.935v8.522h3.652v-3.653c0-1.008.818-1.826 1.826-1.826 1.009 0 1.826.818 1.826 1.826v3.653h3.652V5.935l-1.217-1.218V1.065H9.587v1.826L7.152.457 1.674 5.935z" transform="translate(0 5)"/>
                    <path stroke="#163567" stroke-linecap="round" stroke-linejoin="round" stroke-width=".609" d="M1.674 5.935v8.522h3.652v-3.653c0-1.008.818-1.826 1.826-1.826 1.009 0 1.826.818 1.826 1.826v3.653h3.652V5.935l-1.217-1.218V1.065H9.587v1.826L7.152.457 1.674 5.935z" transform="translate(0 5)"/>
                </g>
            </g>
        </g>
    </g>
</svg>
