<svg xmlns="http://www.w3.org/2000/svg" width="56" height="38" viewBox="0 0 56 38">
    <defs>
        <filter id="8qa9rxjaqa">
            <feColorMatrix in="SourceGraphic" values="0 0 0 0 0.000000 0 0 0 0 0.000000 0 0 0 0 0.000000 0 0 0 1.000000 0"/>
        </filter>
    </defs>
    <g fill="none" fill-rule="evenodd" stroke-linecap="round" stroke-linejoin="round">
        <g>
            <g filter="url(#8qa9rxjaqa)" transform="translate(-1305 -280) translate(1303 280)">
                <g stroke="#163567" stroke-width="1.5">
                    <path d="M37.75 20.336v8c0 1.104-.896 2-2 2h-16c-1.104 0-2-.896-2-2v-16c0-1.104.896-2 2-2h8" transform="translate(2)"/>
                    <path d="M30.75 21.336h-4v-4l9.293-9.293c.391-.391 1.023-.391 1.414 0l2.586 2.586c.391.39.391 1.023 0 1.414l-9.293 9.293zM33.957 10.129L37.957 14.129M26.75 21.336L25.75 22.336" transform="translate(2)"/>
                </g>
            </g>
        </g>
    </g>
</svg>
