<svg xmlns="http://www.w3.org/2000/svg" width="56" height="38" viewBox="0 0 56 38">
    <defs>
        <filter id="6mgathbeqa">
            <feColorMatrix in="SourceGraphic" values="0 0 0 0 0.000000 0 0 0 0 0.000000 0 0 0 0 0.000000 0 0 0 1.000000 0"/>
        </filter>
    </defs>
    <g fill="none" fill-rule="evenodd" stroke-linecap="round" stroke-linejoin="round">
        <g>
            <g filter="url(#6mgathbeqa)" transform="translate(-1388 -280) translate(1303 280)">
                <g stroke="#163567" stroke-width="1.5">
                    <path d="M16.75 22.75h6.13c.474 0 .851.341.977.798.349 1.269 1.512 2.202 2.893 2.202h3c1.381 0 2.544-.933 2.893-2.202.126-.457.503-.798.977-.798h6.13M20.75 19.75L20.75 7.75 32.719 7.75 35.75 10.812 35.75 19.75M25.25 13.25L31.25 13.25M25.25 17.25L31.25 17.25" transform="translate(85)"/>
                    <path d="M38.75 13.75l1 9v6c0 1.104-.896 2-2 2h-19c-1.104 0-2-.896-2-2v-6l1-9" transform="translate(85)"/>
                </g>
            </g>
        </g>
    </g>
</svg>
