<svg xmlns="http://www.w3.org/2000/svg" width="80" height="80" viewBox="0 0 80 80">
    <g fill="none" fill-rule="evenodd" stroke-linecap="round" stroke-linejoin="round">
        <g stroke="#2673f0" stroke-width="4">
            <g transform="translate(-762 -2736) translate(762 2736)">
                <circle cx="40.036" cy="44.5" r="31.5"/>
                <path d="M9.989 7.876c2.921-2.195 7.035-1.8 9.485.912l1.122 1.242L9.7 19.506l-1.438-2.289c-1.94-3.089-1.19-7.15 1.727-9.34z"/>
                <path d="M63.989 7.876c2.921-2.195 7.035-1.8 9.485.912l1.122 1.242L63.7 19.506l-1.438-2.289c-1.94-3.089-1.19-7.15 1.727-9.34z" transform="matrix(-1 0 0 1 133.426 0)"/>
                <path d="M19.786 68.5L15.286 74.5"/>
                <path d="M64.786 68.5L60.286 74.5" transform="matrix(-1 0 0 1 125.072 0)"/>
                <path d="M32.578 28.997L51.365 28.997 44.392 39.311 54.29 39.311 40.2 64.997 38.187 46.997 30.579 46.997z"/>
            </g>
        </g>
    </g>
</svg>
