<svg width="55" height="42" viewBox="0 0 55 42" fill="none" xmlns="http://www.w3.org/2000/svg">
<path d="M0 41.2311C0.297688 41.2436 0.597689 41.2498 0.900002 41.2498C3.43334 41.2498 5.8 40.7998 8 39.8998C10.2333 38.9998 12.1667 37.6831 13.8 35.9498C15.4667 34.2165 16.7667 32.0831 17.7 29.5498C18.6667 26.9831 19.15 24.0331 19.15 20.6998C19.15 17.3665 18.6667 14.4165 17.7 11.8498C16.7667 9.28314 15.4667 7.13314 13.8 5.39981C12.1667 3.66647 10.25 2.36647 8.05 1.4998C5.85 0.599806 3.5 0.149807 1 0.149807C0.664262 0.149807 0.330929 0.157622 0 0.173253V8.06724C0.3 8.02228 0.600001 7.99981 0.900002 7.99981C1.93333 7.99981 2.96667 8.26647 4 8.79981C5.06667 9.33314 6.01667 10.1331 6.85 11.1998C7.68333 12.2331 8.35 13.5498 8.85 15.1498C9.38334 16.7498 9.65 18.5998 9.65 20.6998C9.65 22.8665 9.4 24.7498 8.9 26.3498C8.43334 27.9165 7.8 29.2331 7 30.2998C6.2 31.3331 5.28333 32.1165 4.25 32.6498C3.21667 33.1498 2.13333 33.3998 1 33.3998C0.663732 33.3998 0.330399 33.3763 0 33.3294V41.2311Z" fill="#CFB699"/>
<path d="M32.4926 41.0998C34.1592 41.4331 35.8926 41.5998 37.6926 41.5998C40.5592 41.5998 43.0259 41.2665 45.0926 40.5998C47.1926 39.9331 48.9092 39.0165 50.2426 37.8498C51.5759 36.6498 52.5592 35.2665 53.1926 33.6998C53.8259 32.0998 54.1426 30.3831 54.1426 28.5498C54.1426 26.4498 53.6926 24.5665 52.7926 22.8998C51.9259 21.2331 50.5926 20.0498 48.7926 19.3498C49.4926 19.0165 50.0926 18.5665 50.5926 17.9998C51.1259 17.3998 51.5592 16.7665 51.8926 16.0998C52.2259 15.3998 52.4759 14.6831 52.6426 13.9498C52.8092 13.1831 52.8926 12.4498 52.8926 11.7498C52.8926 10.1498 52.5759 8.64981 51.9426 7.2498C51.3426 5.8498 50.4259 4.63314 49.1926 3.59981C47.9926 2.53314 46.4759 1.68314 44.6426 1.0498C42.8426 0.416472 40.7426 0.0831376 38.3426 0.0498047C36.9426 0.0498047 35.5592 0.183139 34.1926 0.449806C32.8259 0.716473 31.5426 1.14981 30.3426 1.7498C29.1426 2.3498 28.0592 3.11647 27.0926 4.0498C26.1259 4.98314 25.3426 6.09981 24.7426 7.39981C24.4092 8.13314 24.1926 8.93314 24.0926 9.7998C23.9926 10.6331 23.9759 11.4498 24.0426 12.2498H32.3926C32.3592 10.8165 32.8259 9.64981 33.7926 8.74981C34.7592 7.84981 36.1426 7.39981 37.9426 7.39981C38.9759 7.39981 39.8426 7.53314 40.5426 7.79981C41.2426 8.06647 41.8092 8.41647 42.2426 8.8498C42.6759 9.24981 42.9926 9.73314 43.1926 10.2998C43.3926 10.8331 43.4926 11.3665 43.4926 11.8998C43.4926 13.2998 43.0259 14.4498 42.0926 15.3498C41.1926 16.2498 39.7926 16.6998 37.8926 16.6998H31.7926V23.9498H38.5426C40.4426 23.9498 41.8759 24.3498 42.8426 25.1498C43.8426 25.9165 44.3426 26.9998 44.3426 28.3998C44.3426 29.8998 43.8426 31.0998 42.8426 31.9998C41.8426 32.8998 40.1259 33.3498 37.6926 33.3498C36.9259 33.3498 36.2259 33.2665 35.5926 33.0998C34.9926 32.9331 34.3759 32.6665 33.7426 32.2998C32.9426 31.8331 32.2592 31.1998 31.6926 30.3998C31.1259 29.5665 30.7259 28.5831 30.4926 27.4498L22.1926 30.9998C22.5259 32.8998 23.2092 34.5831 24.2426 36.0498C25.2759 37.4831 26.4592 38.5831 27.7926 39.3498C29.2926 40.2165 30.8592 40.7998 32.4926 41.0998Z" fill="#CFB699"/>
</svg>
