<svg width="24" height="24" viewBox="0 0 24 24" fill="none" xmlns="http://www.w3.org/2000/svg">
<rect x="3" y="3" width="18" height="18" rx="4" fill="#3F63BF"/>
<path fill-rule="evenodd" clip-rule="evenodd" d="M22.5303 3.46967C22.8232 3.76256 22.8232 4.23744 22.5303 4.53033L12.5303 14.5303C12.2374 14.8232 11.7626 14.8232 11.4697 14.5303L8.46967 11.5303C8.17678 11.2374 8.17678 10.7626 8.46967 10.4697C8.76256 10.1768 9.23744 10.1768 9.53033 10.4697L12 12.9393L21.4697 3.46967C21.7626 3.17678 22.2374 3.17678 22.5303 3.46967Z" fill="white"/>
<path d="M22.6718 4.67175C23.0427 4.30075 23.0427 3.69925 22.6718 3.32825C22.3008 2.95725 21.6992 2.95725 21.3282 3.32825L12 12.6565L9.67175 10.3282C9.30075 9.95725 8.69925 9.95725 8.32825 10.3282C7.95725 10.6992 7.95725 11.3008 8.32825 11.6718L11.3282 14.6718C11.6992 15.0427 12.3008 15.0427 12.6718 14.6718L22.6718 4.67175Z" stroke="black" stroke-opacity="0.3" stroke-width="0.4" stroke-linecap="round" stroke-linejoin="round"/>
</svg>
