<svg width="67" height="79" viewBox="0 0 67 79" fill="none" xmlns="http://www.w3.org/2000/svg">
<path d="M13 50.6921H7.5C4.475 50.6921 2 47.7706 2 44.1999V34.4615C2 30.8908 4.475 27.9692 7.5 27.9692H13V50.6921Z" stroke="#FFBF00" stroke-width="3" stroke-miterlimit="10" stroke-linecap="round" stroke-linejoin="round"/>
<path d="M54.25 50.6921H59.75C62.775 50.6921 65.25 47.7706 65.25 44.1999V34.4615C65.25 30.8908 62.775 27.9692 59.75 27.9692H54.25V50.6921Z" stroke="#FFBF00" stroke-width="3" stroke-miterlimit="10" stroke-linecap="round" stroke-linejoin="round"/>
<path d="M57 50.6924V57.1846C57 64.3584 51.5 73.415 43.25 73.415H37.75" stroke="#FFBF00" stroke-width="3" stroke-miterlimit="10" stroke-linecap="round" stroke-linejoin="round"/>
<path d="M35 76.6614H32.25C30.7375 76.6614 29.5 75.2006 29.5 73.4152C29.5 71.6297 30.7375 70.1689 32.25 70.1689H35C36.5125 70.1689 37.75 71.6297 37.75 73.4152C37.75 75.2006 36.5125 76.6614 35 76.6614Z" stroke="#FFBF00" stroke-width="3" stroke-miterlimit="10" stroke-linecap="round" stroke-linejoin="round"/>
<path d="M13 27.9692V24.7231C13 12.1605 21.6075 2 32.25 2H35C45.6425 2 54.25 12.1605 54.25 24.7231V27.9692" stroke="#FFBF00" stroke-width="3" stroke-miterlimit="10" stroke-linecap="round" stroke-linejoin="round"/>
</svg>
