<svg width="29" height="29" viewBox="0 0 29 29" fill="none" xmlns="http://www.w3.org/2000/svg">
<path d="M6.33333 10.3333V1H22.3333V10.3333M6.33333 22.3333H3.66667C2.95942 22.3333 2.28115 22.0524 1.78105 21.5523C1.28095 21.0522 1 20.3739 1 19.6667V13C1 12.2928 1.28095 11.6145 1.78105 11.1144C2.28115 10.6143 2.95942 10.3333 3.66667 10.3333H25C25.7072 10.3333 26.3855 10.6143 26.8856 11.1144C27.3857 11.6145 27.6667 12.2928 27.6667 13V19.6667C27.6667 20.3739 27.3857 21.0522 26.8856 21.5523C26.3855 22.0524 25.7072 22.3333 25 22.3333H22.3333M6.33333 17H22.3333V27.6667H6.33333V17Z" stroke="#FFBF00" stroke-width="2" stroke-linecap="round" stroke-linejoin="round"/>
</svg>
