<svg width="28" height="33" viewBox="0 0 28 33" fill="none" xmlns="http://www.w3.org/2000/svg">
<path d="M25 23V32H3C3 32 3 26.5147 3 23M21 18V16C21 14.9391 20.5786 13.9217 19.8284 13.1716C19.0783 12.4214 18.0609 12 17 12H10C8.93913 12 7.92172 12.4214 7.17157 13.1716C6.42143 13.9217 6 14.9391 6 16V18M1 18H27V23H1V18ZM17.5 5C17.5 7.20914 15.7091 9 13.5 9C11.2909 9 9.5 7.20914 9.5 5C9.5 2.79086 11.2909 1 13.5 1C15.7091 1 17.5 2.79086 17.5 5Z" stroke="#FFBF00" stroke-width="2" stroke-linecap="round" stroke-linejoin="round"/>
</svg>
