<svg xmlns="http://www.w3.org/2000/svg" width="76" height="89" viewBox="0 0 76 89">
    <g fill="none" fill-rule="evenodd" stroke-linejoin="round">
        <g stroke="#000" stroke-width="4.41">
            <g>
                <g>
                    <g>
                        <path d="M42.24 86V70.436h13.284c1.334 0 2.612-.53 3.555-1.474.943-.944 1.472-2.224 1.472-3.559V52.191L70 48.023l-5.39-12.296c0-3.025-.365-6.039-1.088-8.976C59.031 8.212 41.325-3.375 24.052.88 6.776 5.134-3.467 23.638 1.076 42.195c1.69 6.961 5.397 13.267 10.658 18.124V86" transform="translate(-264 -901) translate(0 612) translate(170 178) translate(97 114) matrix(-1 0 0 1 70 0)"/>
                    </g>
                </g>
            </g>
        </g>
    </g>
</svg>
