<svg xmlns="http://www.w3.org/2000/svg" width="84" height="69" viewBox="0 0 84 69">
    <defs>
        <filter id="xqiozqm5xa">
            <feColorMatrix in="SourceGraphic" values="0 0 0 0 0.000000 0 0 0 0 0.000000 0 0 0 0 0.000000 0 0 0 1.000000 0"/>
        </filter>
    </defs>
    <g fill="none" fill-rule="evenodd">
        <g>
            <g>
                <g filter="url(#xqiozqm5xa)" transform="translate(-260 -1192) translate(0 612) translate(170 457)">
                    <g stroke="#EDEDED" stroke-width="4.41">
                        <path d="M21.097 56.036c8.343-1.512 13.913-4.203 16.71-8.074C51.85 45.6 62.37 35.883 62.37 24.255 62.37 10.859 48.408 0 31.185 0S0 10.86 0 24.255c0 11.74 10.724 21.532 24.968 23.773 1.205 2.466-.086 5.136-3.871 8.008z" transform="translate(93 126)"/>
                        <path d="M68.15 15.489c6.104 4.1 9.97 10.174 9.97 16.952 0 10.823-9.857 19.85-22.95 21.916-1.108 2.274.078 4.735 3.558 7.383-7.669-1.394-12.789-3.876-15.36-7.444" transform="translate(93 126)"/>
                    </g>
                </g>
            </g>
        </g>
    </g>
</svg>
