<svg xmlns="http://www.w3.org/2000/svg" width="90" height="90" viewBox="0 0 90 90">
    <g fill="none" fill-rule="evenodd" stroke-linejoin="round">
        <g stroke="#000" stroke-width="4.41">
            <g>
                <g>
                    <path d="M172 164.972v-15.908l-10.08-1.195c-.683-2.395-1.634-4.704-2.838-6.884l6.263-7.972-11.33-11.379-7.957 6.26c-2.181-1.202-4.492-2.154-6.887-2.835L137.958 115H121.9l-1.196 10.059c-2.394.684-4.704 1.636-6.887 2.835l-7.868-6.26-11.312 11.379 6.263 7.954c-1.204 2.18-2.155 4.49-2.837 6.884L88 149.064v16.05l10.063 1.196c.682 2.394 1.633 4.704 2.837 6.884l-6.263 7.811 11.33 11.307 7.94-6.26c2.182 1.2 4.492 2.151 6.887 2.836L121.989 199h16.058l1.195-10.076c2.396-.682 4.706-1.633 6.887-2.836l7.886 6.224 11.312-11.307-6.262-7.954c1.203-2.18 2.155-4.49 2.836-6.884L172 164.972zm-42 3.37c-4.607.008-8.765-2.762-10.531-7.015-1.767-4.254-.794-9.152 2.464-12.408 3.258-3.257 8.158-4.23 12.414-2.463 4.255 1.765 7.026 5.92 7.018 10.526-.01 6.27-5.092 11.35-11.365 11.36h0z" transform="translate(-534 -1181) translate(0 612) translate(449 457)"/>
                </g>
            </g>
        </g>
    </g>
</svg>
