<svg xmlns="http://www.w3.org/2000/svg" width="71" height="83" viewBox="0 0 71 83">
    <defs>
        <filter id="rubv36rena">
            <feColorMatrix in="SourceGraphic" values="0 0 0 0 0.000000 0 0 0 0 0.000000 0 0 0 0 0.000000 0 0 0 1.000000 0"/>
        </filter>
    </defs>
    <g fill="none" fill-rule="evenodd">
        <g>
            <g>
                <g filter="url(#rubv36rena)" transform="translate(-825 -904) translate(0 612) translate(728 178)">
                    <g stroke="#3D4451" stroke-width="4.41">
                        <path d="M8.407 0C3.764 0 0 3.763 0 8.404V67.04c0-4.641 3.764-8.404 8.407-8.404h56.601V0H8.407z" transform="translate(100 117)"/>
                        <path d="M0 67.557v1.08c.01 4.73 3.77 8.56 8.407 8.56h56.601V58.913h-56.6c-2.242 0-4.39.913-5.969 2.536C.861 63.072-.017 65.27 0 67.557zM20.315 21.331L52.819 21.331M18.283 39.614L50.787 39.614" transform="translate(100 117)"/>
                    </g>
                </g>
            </g>
        </g>
    </g>
</svg>
