<svg width="18" height="15" viewBox="0 0 18 15" fill="none" xmlns="http://www.w3.org/2000/svg">
<path d="M12.6005 11.824C12.0725 12.384 11.4645 12.656 10.7765 12.656C10.2165 12.656 9.7365 12.448 9.1925 11.872C11.5765 11.104 13.1925 9.024 13.1925 6.4C13.1925 3.056 10.5845 0.608 7.0645 0.608C3.5285 0.608 0.9365 3.072 0.9365 6.4C0.9365 9.44 3.0965 11.76 6.1685 12.144C7.8965 13.968 9.0645 14.576 10.7285 14.576C11.9605 14.576 13.0165 14.096 13.7525 13.2L12.6005 11.824ZM3.5605 6.4C3.5605 4.272 5.0645 2.816 7.0645 2.816C9.0645 2.816 10.5685 4.272 10.5685 6.4C10.5685 8.528 9.0645 9.984 7.0645 9.984C5.0645 9.984 3.5605 8.528 3.5605 6.4ZM15.596 12.128C16.46 12.128 17.148 11.472 17.148 10.56C17.148 9.632 16.46 9.024 15.596 9.024C14.732 9.024 14.044 9.632 14.044 10.56C14.044 11.472 14.732 12.128 15.596 12.128Z" fill="#111111"/>
</svg>
