<svg xmlns="http://www.w3.org/2000/svg" width="22" height="22" viewBox="0 0 22 22">
    <g fill="none" fill-rule="evenodd">
        <g>
            <g>
                <g transform="translate(-727 -653) translate(312 279) translate(415 374)">
                    <rect width="22" height="22" fill="#999" opacity=".2" rx="3"/>
                    <path stroke="#010101" stroke-linecap="round" stroke-linejoin="round" stroke-width="1.2" d="M6.104 17.533h11.001c.937 0 1.537-.431 1.537-1.317v-5.54c0-.63-.523-1.143-1.167-1.143h-.885"/>
                    <path stroke="#010101" stroke-linecap="round" stroke-linejoin="round" stroke-width="1.2" d="M7.559 10.572v5.095c0 .687-.05 1.866-1.455 1.866-1.406 0-1.667-1.18-1.667-1.866V6.333c0-1.572.628-1.866 1.815-1.866h1.604c.956 0 1.493.487 1.612 1.463.086.242.303.403.546.403h5.507c.644 0 1.166.558 1.166 1.245v1.955H8.744c-.644 0-1.184.352-1.184 1.039z"/>
                </g>
            </g>
        </g>
    </g>
</svg>
