<svg xmlns="http://www.w3.org/2000/svg" width="21" height="17" viewBox="0 0 21 17">
    <defs>
        <filter id="564pgh57wa">
            <feColorMatrix in="SourceGraphic" values="0 0 0 0 0.400000 0 0 0 0 0.400000 0 0 0 0 0.400000 0 0 0 1.000000 0"/>
        </filter>
    </defs>
    <g fill="none" fill-rule="evenodd" stroke-linecap="round" stroke-linejoin="round">
        <g>
            <g>
                <g>
                    <g filter="url(#564pgh57wa)" transform="translate(-1638 -2109) translate(100 2082) translate(1419 22) translate(120 1)">
                        <g>
                            <path stroke="#7F848F" stroke-width="1.5" d="M15 3.667C15 4.956 13.88 6 12.5 6S10 4.956 10 3.667V2.334C10 1.044 11.12 0 12.5 0S15 1.045 15 2.334v1.333zM7 3c0 1.105-.895 2-2 2s-2-.895-2-2 .895-2 2-2 2 .895 2 2zM7 8.45C6.16 7.97 5.148 8 5.014 8 2.537 8 .474 9.393.015 11.233c-.101.401.323.767.841.767h3.472M12.5 9h0c-3.305 0-6.04 2.237-6.492 5.147-.07.45.322.853.819.853h11.346c.497 0 .889-.403.819-.853C18.539 11.237 15.805 9 12.5 9z" transform="translate(0 5)"/>
                        </g>
                    </g>
                </g>
            </g>
        </g>
    </g>
</svg>
