<svg xmlns="http://www.w3.org/2000/svg" xmlns:xlink="http://www.w3.org/1999/xlink" width="80" height="82" viewBox="0 0 80 82">
    <defs>
        <path id="0pfjf13zaa" d="M0 0.865L43.451 0.865 43.451 44.316 0 44.316z"/>
        <path id="uoe00dm1gc" d="M0.344 0.865L43.795 0.865 43.795 44.316 0.344 44.316z"/>
        <path id="3regs90sme" d="M0.344 0.865L43.795 0.865 43.795 44.316 0.344 44.316z"/>
        <path id="gz8ez153eg" d="M0.344 0.069L43.795 0.069 43.795 43.52 0.344 43.52z"/>
        <path id="6m8iyhn86i" d="M0.344 0.069L43.795 0.069 43.795 43.52 0.344 43.52z"/>
        <path id="giip621euk" d="M0 0.865L43.451 0.865 43.451 44.316 0 44.316z"/>
        <path id="fy92cumwbm" d="M0.344 0.17L17.76 0.17 17.76 30.091 0.344 30.091z"/>
    </defs>
    <g fill="none" fill-rule="evenodd">
        <g>
            <g>
                <g>
                    <g>
                        <g transform="translate(-372 -609) translate(372 606) translate(0 3) translate(0 .572) translate(0 35.11)">
                            <mask id="nhprdfbzmb" fill="#fff">
                                <use xlink:href="#0pfjf13zaa"/>
                            </mask>
                            <path fill="#FFF" d="M43.451 44.316h-7.545C35.906 24.517 19.8 8.412 0 8.412V.865c23.959 0 43.451 19.491 43.451 43.451" mask="url(#nhprdfbzmb)"/>
                        </g>
                        <g transform="translate(-372 -609) translate(372 606) translate(0 3) translate(0 .572) translate(35.562 35.11)">
                            <mask id="kg70p9eavd" fill="#fff">
                                <use xlink:href="#uoe00dm1gc"/>
                            </mask>
                            <path fill="#FFF" d="M7.889 44.316H.344c0-23.96 19.492-43.45 43.45-43.45v7.546C23.996 8.412 7.89 24.517 7.89 44.316" mask="url(#kg70p9eavd)"/>
                        </g>
                        <g transform="translate(-372 -609) translate(372 606) translate(0 3) translate(0 .572) translate(35.562 35.11)">
                            <mask id="xzb01aw34f" fill="#fff">
                                <use xlink:href="#3regs90sme"/>
                            </mask>
                            <path fill="#FFF" d="M7.889 44.316H.344c0-23.96 19.492-43.45 43.45-43.45v7.546C23.996 8.412 7.89 24.517 7.89 44.316" mask="url(#xzb01aw34f)"/>
                        </g>
                        <g transform="translate(-372 -609) translate(372 606) translate(0 3) translate(0 .572) translate(35.562)">
                            <mask id="swjdmyswph" fill="#fff">
                                <use xlink:href="#gz8ez153eg"/>
                            </mask>
                            <path fill="#FFF" d="M43.795 43.52C19.836 43.52.344 24.03.344.069h7.545c0 19.8 16.106 35.906 35.906 35.906v7.545z" mask="url(#swjdmyswph)"/>
                        </g>
                        <path fill="#1D1D1B" d="M0 43.52v-7.545c19.8 0 35.907-16.107 35.907-35.906h7.545C43.452 24.029 23.959 43.52 0 43.52" transform="translate(-372 -609) translate(372 606) translate(0 3) translate(0 .572)"/>
                        <g transform="translate(-372 -609) translate(372 606) translate(0 3) translate(0 .572) translate(35.562)">
                            <mask id="x89jmjnurj" fill="#fff">
                                <use xlink:href="#6m8iyhn86i"/>
                            </mask>
                            <path fill="#1D1D1B" d="M43.795 43.52C19.836 43.52.344 24.03.344.069h7.545c0 19.8 16.106 35.906 35.906 35.906v7.545z" mask="url(#x89jmjnurj)"/>
                        </g>
                        <path fill="#FFF" d="M0 43.52v-7.545c19.8 0 35.907-16.107 35.907-35.906h7.545C43.452 24.029 23.959 43.52 0 43.52" transform="translate(-372 -609) translate(372 606) translate(0 3) translate(0 .572)"/>
                        <g transform="translate(-372 -609) translate(372 606) translate(0 3) translate(0 .572) translate(0 35.11)">
                            <mask id="ss86qzv25l" fill="#fff">
                                <use xlink:href="#giip621euk"/>
                            </mask>
                            <path fill="#1D1D1B" d="M43.451 44.316h-7.545C35.906 24.517 19.8 8.412 0 8.412V.865c23.959 0 43.451 19.491 43.451 43.451" mask="url(#ss86qzv25l)"/>
                        </g>
                        <g transform="translate(-372 -609) translate(372 606) translate(0 3) translate(0 .572) translate(35.562 49.334)">
                            <mask id="8u6neh2rbn" fill="#fff">
                                <use xlink:href="#fy92cumwbm"/>
                            </mask>
                            <path fill="#FFF" d="M7.889 30.092H.344C.344 18.904 4.587 8.276 12.29.17l5.469 5.195c-6.365 6.701-9.871 15.48-9.871 24.727" mask="url(#8u6neh2rbn)"/>
                        </g>
                    </g>
                </g>
            </g>
        </g>
    </g>
</svg>
