<?xml version="1.0" encoding="utf-8"?>
<!-- Generator: Adobe Illustrator 16.0.0, SVG Export Plug-In . SVG Version: 6.00 Build 0)  -->
<!DOCTYPE svg PUBLIC "-//W3C//DTD SVG 1.1//EN" "http://www.w3.org/Graphics/SVG/1.1/DTD/svg11.dtd">
<svg version="1.1" id="Layer_1" xmlns="http://www.w3.org/2000/svg" xmlns:xlink="http://www.w3.org/1999/xlink" x="0px" y="0px"
	 width="22px" height="22px" viewBox="0 0 22 22" enable-background="new 0 0 22 22" xml:space="preserve">
<path fill="#AAAAAA" d="M7.802,14.045c-3.407-3.406-4.751-6.17-3.095-9.113c0.261-0.464,0.729-0.775,1.259-0.836l0.728-0.084
	C7.334,3.937,7.961,4.241,8.3,4.791l1.049,1.701C9.702,7.065,9.675,7.794,9.28,8.34L8.382,9.579
	C8.313,9.673,8.323,9.804,8.406,9.886l3.726,3.724c0.081,0.081,0.208,0.093,0.302,0.028l1.314-0.9
	c0.535-0.367,1.236-0.389,1.793-0.056l1.564,0.934c0.574,0.343,0.887,0.997,0.793,1.66l-0.097,0.688
	c-0.071,0.502-0.368,0.945-0.806,1.202C14.074,18.877,11.22,17.461,7.802,14.045z"/>
</svg>
