<?xml version="1.0" encoding="utf-8"?>
<!-- Generator: Adobe Illustrator 16.0.0, SVG Export Plug-In . SVG Version: 6.00 Build 0)  -->
<!DOCTYPE svg PUBLIC "-//W3C//DTD SVG 1.1//EN" "http://www.w3.org/Graphics/SVG/1.1/DTD/svg11.dtd">
<svg version="1.1" id="Layer_1" xmlns="http://www.w3.org/2000/svg" xmlns:xlink="http://www.w3.org/1999/xlink" x="0px" y="0px"
	 width="96px" height="24px" viewBox="-36 0 96 24" enable-background="new -36 0 96 24" xml:space="preserve">
<g>
	<path fill="#FFFFFF" d="M-31.652,1h15.305C-14.498,1-13,2.499-13,4.348v15.305c0,1.85-1.498,3.348-3.348,3.348h-15.305
		C-33.501,23-35,21.502-35,19.652V4.348C-35,2.499-33.501,1-31.652,1z"/>
	<path fill="#D4D4D4" d="M-16.348,1C-14.498,1-13,2.499-13,4.348v15.305c0,1.85-1.498,3.348-3.348,3.348h-15.305
		C-33.501,23-35,21.502-35,19.652V4.348C-35,2.499-33.501,1-31.652,1H-16.348 M-16.348,0h-15.305C-34.05,0-36,1.95-36,4.348v15.305
		C-36,22.05-34.05,24-31.652,24h15.305C-13.95,24-12,22.05-12,19.652V4.348C-12,1.95-13.95,0-16.348,0L-16.348,0z"/>
</g>
<g>
	
		<linearGradient id="SVGID_1_" gradientUnits="userSpaceOnUse" x1="-8.3394" y1="0.04" x2="-8.3394" y2="-23.9604" gradientTransform="matrix(1 0 0 -1 8.3398 0.04)">
		<stop  offset="0" style="stop-color:#08B395"/>
		<stop  offset="1" style="stop-color:#0C977F"/>
	</linearGradient>
	<path fill="url(#SVGID_1_)" d="M-8,0H8c2.209,0,4,1.791,4,4v16c0,2.209-1.791,4-4,4H-8c-2.209,0-4-1.791-4-4V4
		C-12,1.791-10.209,0-8,0z"/>
	<path fill="#FFFFFF" d="M-1,16.416c-0.199,0-0.39-0.079-0.53-0.22l-3.667-3.666c-0.293-0.293-0.293-0.768,0-1.061
		s0.768-0.293,1.061,0l3.109,3.108l5.806-6.415C5.055,7.855,5.529,7.832,5.837,8.11S6.168,8.863,5.89,9.17l-6.333,6.999
		c-0.138,0.152-0.332,0.242-0.538,0.247C-0.987,16.416-0.994,16.416-1,16.416z"/>
</g>
<path fill="#F4F4F4" d="M31.652,0H16.348C13.95,0,12,1.95,12,4.348v15.305C12,22.05,13.95,24,16.348,24h15.305
	C34.05,24,36,22.05,36,19.652V4.348C36,1.95,34.05,0,31.652,0z"/>
<g>
	<path fill="#F4F4F4" d="M40,0h16c2.209,0,4,1.791,4,4v16c0,2.209-1.791,4-4,4H40c-2.209,0-4-1.791-4-4V4C36,1.791,37.791,0,40,0z"
		/>
	<path fill="#D4D4D4" d="M47,16.416c-0.199,0-0.39-0.079-0.53-0.22l-3.667-3.666c-0.293-0.293-0.293-0.768,0-1.061
		s0.768-0.293,1.061,0l3.109,3.108l5.806-6.415c0.276-0.308,0.751-0.331,1.059-0.053s0.331,0.753,0.053,1.06l-6.333,6.999
		c-0.139,0.152-0.332,0.242-0.538,0.247C47.013,16.416,47.006,16.416,47,16.416z"/>
</g>
</svg>
