<svg xmlns="http://www.w3.org/2000/svg" width="14" height="7" viewBox="0 0 14 7">
    <g fill="none" fill-rule="evenodd">
        <g fill="#000">
            <g>
                <g>
                    <path d="M283 25v1h-2v-1h2zm-2-1v1h-1v-1h1zm3 0v1h-1v-1h1zm-4-1v1h-1v-1h1zm5 0v1h-1v-1h1zm-6-1v1h-1v-1h1zm7 0v1h-1v-1h1zm-8-1v1h-1v-1h1zm9 0v1h-1v-1h1zm-10-1v1h-1v-1h1zm11 0v1h-1v-1h1zm-12-1v1h-1v-1h1zm13 0v1h-1v-1h1z" transform="translate(-445 -602) translate(158 492) translate(12 91)"/>
                </g>
            </g>
        </g>
    </g>
</svg>
